<svg width="212" height="126" viewBox="0 0 212 126" fill="none" xmlns="http://www.w3.org/2000/svg">
<path d="M206 0H6V125.86H206V0Z" fill="#073737"/>
<path d="M211 6V22.55C211 26.66 208 30 204.2 30H204.11C200.35 30 197.31 33.34 197.3 37.45V42.55C197.3 46.66 194.3 49.99 190.5 50H185.76C182 50 179 53.34 179 57.45V62.55C179 66.67 176 70 172.19 70H167.5C163.75 70 160.71 66.66 160.7 62.55V57.45C160.7 53.33 157.7 50 153.89 50H131C127.25 50 124.2 46.66 124.2 42.55V37.45C124.2 33.33 121.2 30 117.39 30H112.74C108.99 30 105.94 33.34 105.94 37.45V62.55C105.94 66.67 102.88 70 99.1298 70H94.4698C90.7098 70 87.6698 66.66 87.6698 62.55V57.45C87.6698 53.33 84.6098 50 80.8598 50H57.9998C54.2398 50 51.1998 46.66 51.1998 42.55V37.45C51.1998 33.33 48.1398 30 44.3798 30H39.6898C35.9298 30 32.8898 33.34 32.8798 37.45V42.55C32.8798 46.67 29.8298 50 26.0698 50H21.4298C17.6698 50 14.6298 46.66 14.6198 42.55V37.45C14.6198 33.33 11.6198 30 7.8098 30C3.9998 30 0.999801 26.66 0.999801 22.55V6.43C0.962203 5.62137 1.08462 4.81327 1.36002 4.05205C1.63543 3.29083 2.0584 2.59147 2.60469 1.99409C3.15098 1.3967 3.80983 0.913043 4.54345 0.570851C5.27707 0.228658 6.07104 0.0346657 6.8798 0L205.53 0C206.287 0.0300017 207.031 0.210845 207.718 0.531942C208.405 0.853039 209.021 1.30794 209.53 1.87C210.544 2.99967 211.072 4.48355 211 6V6Z" fill="#F7A729"/>
<path opacity="0.3" d="M80 42C80 42 92.3 42.48 92.3 56.7" stroke="white" stroke-width="4" stroke-miterlimit="10" stroke-linecap="round"/>
<path opacity="0.3" d="M119.229 25.2999C119.229 25.2999 128.299 25.1599 128.299 34.9999" stroke="white" stroke-width="4" stroke-miterlimit="10" stroke-linecap="round"/>
<path opacity="0.3" d="M12.3995 23.81C12.3995 23.81 6.68945 23.61 6.68945 17.01" stroke="white" stroke-width="4" stroke-miterlimit="10" stroke-linecap="round"/>
<path opacity="0.3" d="M193.76 38.9099C193.76 38.9099 193.58 45.1599 187.55 45.1599" stroke="white" stroke-width="4" stroke-miterlimit="10" stroke-linecap="round"/>
<path opacity="0.3" d="M155.21 8.56006H176.31" stroke="white" stroke-width="4" stroke-miterlimit="10" stroke-linecap="round"/>
<path opacity="0.3" d="M49.0996 13H106" stroke="white" stroke-width="4" stroke-miterlimit="10" stroke-linecap="round"/>
</svg>
