<svg width="811" height="200" viewBox="0 0 811 200" fill="none" xmlns="http://www.w3.org/2000/svg">
<path d="M805.006 4.39038H5.00586V200H805.006V4.39038Z" fill="#043636"/>
<path d="M403.216 30.0004H403.126C399.366 30.0004 396.326 33.3404 396.316 37.4504V42.5504C396.316 46.6604 393.316 49.9904 389.516 50.0004H384.776C381.006 50.0004 378.006 53.3404 378.006 57.4504V62.5504C378.006 66.6704 374.956 70.0004 371.196 70.0004H366.546C362.796 70.0004 359.756 66.6604 359.746 62.5504V57.4504C359.746 53.3304 356.746 50.0004 352.936 50.0004H330.006C326.256 50.0004 323.206 46.6604 323.206 42.5504V37.4504C323.206 33.3304 320.156 30.0004 316.396 30.0004H311.746C307.996 30.0004 304.946 33.3404 304.946 37.4504V62.5504C304.946 66.6704 301.886 70.0004 298.136 70.0004H293.486C289.726 70.0004 286.686 66.6604 286.686 62.5504V57.4504C286.686 53.3304 283.626 50.0004 279.876 50.0004H257.006C253.246 50.0004 250.206 46.6604 250.206 42.5504V37.4504C250.206 33.3304 247.146 30.0004 243.386 30.0004H238.746C234.986 30.0004 231.946 33.3404 231.936 37.4504V42.5504C231.936 46.6704 228.936 50.0004 225.126 50.0004H220.486C216.726 50.0004 213.686 46.6604 213.676 42.5504V37.4504C213.676 33.3304 210.626 30.0004 206.866 30.0004H203.166C199.406 30.0004 196.366 33.3404 196.356 37.4504V42.5504C196.356 46.6604 193.356 49.9904 189.556 50.0004H184.816C181.006 50.0004 178.006 53.3404 178.006 57.4504V62.5504C178.006 66.6704 174.956 70.0004 171.196 70.0004H166.506C162.756 70.0004 159.716 66.6604 159.706 62.5504V57.4504C159.706 53.3304 156.706 50.0004 152.896 50.0004H130.006C126.256 50.0004 123.206 46.6604 123.206 42.5504V37.4504C123.206 33.3304 120.156 30.0004 116.396 30.0004H111.746C107.986 30.0004 104.946 33.3404 104.946 37.4504V62.5504C104.946 66.6704 101.886 70.0004 98.1358 70.0004H93.4658C89.7058 70.0004 86.6658 66.6604 86.6658 62.5504V57.4504C86.6658 53.3304 83.6058 50.0004 79.8558 50.0004H56.9458C53.1858 50.0004 50.1458 46.6604 50.1358 42.5504V37.4504C50.1358 33.3304 47.0858 30.0004 43.3258 30.0004H38.6858C34.9258 30.0004 31.8858 33.3404 31.8758 37.4504V42.5504C31.8758 46.6704 28.8258 50.0004 25.0658 50.0004H20.4258C16.6658 50.0004 13.6258 46.6604 13.6158 42.5504V37.4504C13.6158 33.3304 10.6158 30.0004 6.80579 30.0004C5.89738 29.9893 5.00127 29.7888 4.17476 29.4118C3.34825 29.0347 2.60951 28.4892 2.00579 27.8104C0.70783 26.367 -0.00528724 24.4915 0.0057865 22.5504V6.4304C-0.0648272 4.80026 0.513148 3.20852 1.61324 2.00347C2.71334 0.798426 4.24597 0.0782026 5.87579 0.000395734H204.526C204.747 -0.00285082 204.968 0.0138839 205.186 0.0503957C205.419 0.0351431 205.653 0.0351431 205.886 0.0503957H604.586C604.807 0.0471492 605.028 0.0638839 605.246 0.100396C605.479 0.0851431 605.713 0.0851431 605.946 0.100396H804.586C806.107 0.173023 807.537 0.845001 808.564 1.96938C809.591 3.09375 810.131 4.57903 810.066 6.1004V22.5504C810.066 26.6604 807.066 29.9904 803.266 30.0004H803.176C799.416 30.0004 796.376 33.3404 796.366 37.4504V42.5504C796.366 46.6604 793.366 49.9904 789.566 50.0004H784.826C781.076 50.0004 778.036 53.3404 778.026 57.4504V62.5504C778.026 66.6704 775.026 70.0004 771.216 70.0004H766.566C762.816 70.0004 759.776 66.6604 759.766 62.5504V57.4504C759.766 53.3304 756.766 50.0004 752.956 50.0004H730.006C726.256 50.0004 723.206 46.6604 723.206 42.5504V37.4504C723.206 33.3304 720.206 30.0004 716.396 30.0004H711.746C707.996 30.0004 704.946 33.3404 704.946 37.4504V62.5504C704.946 66.6704 701.886 70.0004 698.136 70.0004H693.486C689.726 70.0004 686.686 66.6604 686.686 62.5504V57.4504C686.686 53.3304 683.626 50.0004 679.876 50.0004H657.006C653.246 50.0004 650.206 46.6604 650.206 42.5504V37.4504C650.206 33.3304 647.146 30.0004 643.386 30.0004H638.746C634.986 30.0004 631.946 33.3404 631.936 37.4504V42.5504C631.936 46.6704 628.936 50.0004 625.136 50.0004H620.496C616.736 50.0004 613.696 46.6604 613.686 42.5504V37.4504C613.686 33.3304 610.686 30.0004 606.876 30.0004H603.176C599.416 30.0004 596.376 33.3404 596.366 37.4504V42.5504C596.366 46.6604 593.366 49.9904 589.566 50.0004H584.826C581.076 50.0004 578.036 53.3404 578.026 57.4504V62.5504C578.026 66.6704 575.026 70.0004 571.216 70.0004H566.566C562.816 70.0004 559.776 66.6604 559.766 62.5504V57.4504C559.766 53.3304 556.766 50.0004 552.956 50.0004H530.006C526.256 50.0004 523.206 46.6604 523.206 42.5504V37.4504C523.206 33.3304 520.206 30.0004 516.396 30.0004H511.746C507.986 30.0004 504.946 33.3404 504.946 37.4504V62.5504C504.946 66.6704 501.886 70.0004 498.136 70.0004H493.486C489.726 70.0004 486.686 66.6604 486.686 62.5504V57.4504C486.686 53.3304 483.626 50.0004 479.876 50.0004H457.006C453.246 50.0004 450.206 46.6604 450.196 42.5504V37.4504C450.196 33.3304 447.146 30.0004 443.386 30.0004H438.746C434.986 30.0004 431.946 33.3404 431.936 37.4504V42.5504C431.936 46.6704 428.886 50.0004 425.126 50.0004H420.486C416.726 50.0004 413.686 46.6604 413.676 42.5504V37.4504C413.676 33.3304 410.626 30.0004 406.866 30.0004" fill="#F7A628"/>
<g opacity="0.3">
<path d="M79.0059 42.0005C79.0059 42.0005 91.3159 42.4805 91.3159 56.7005Z" fill="#F7A628"/>
<path d="M79.0059 42.0005C79.0059 42.0005 91.3159 42.4805 91.3159 56.7005" stroke="white" stroke-width="4" stroke-miterlimit="10" stroke-linecap="round"/>
</g>
<g opacity="0.3">
<path d="M118.226 25.3004C118.226 25.3004 127.296 25.1604 127.296 35.0004Z" fill="#F7A628"/>
<path d="M118.226 25.3004C118.226 25.3004 127.296 25.1604 127.296 35.0004" stroke="white" stroke-width="4" stroke-miterlimit="10" stroke-linecap="round"/>
</g>
<g opacity="0.3">
<path d="M11.3955 23.8105C11.3955 23.8105 5.68555 23.6105 5.68555 17.0105Z" fill="#F7A628"/>
<path d="M11.3955 23.8105C11.3955 23.8105 5.68555 23.6105 5.68555 17.0105" stroke="white" stroke-width="4" stroke-miterlimit="10" stroke-linecap="round"/>
</g>
<g opacity="0.3">
<path d="M192.756 38.9104C192.756 38.9104 192.576 45.1604 186.546 45.1604Z" fill="#F7A628"/>
<path d="M192.756 38.9104C192.756 38.9104 192.576 45.1604 186.546 45.1604" stroke="white" stroke-width="4" stroke-miterlimit="10" stroke-linecap="round"/>
</g>
<path opacity="0.3" d="M154.206 8.5603H175.306" stroke="white" stroke-width="4" stroke-miterlimit="10" stroke-linecap="round"/>
<path opacity="0.3" d="M48.0957 13.0005H105.006" stroke="white" stroke-width="4" stroke-miterlimit="10" stroke-linecap="round"/>
<g opacity="0.3">
<path d="M279.006 42.0005C279.006 42.0005 291.316 42.4805 291.316 56.7005Z" fill="#F7A628"/>
<path d="M279.006 42.0005C279.006 42.0005 291.316 42.4805 291.316 56.7005" stroke="white" stroke-width="4" stroke-miterlimit="10" stroke-linecap="round"/>
</g>
<g opacity="0.3">
<path d="M318.235 25.3004C318.235 25.3004 327.295 25.1604 327.295 35.0004Z" fill="#F7A628"/>
<path d="M318.235 25.3004C318.235 25.3004 327.295 25.1604 327.295 35.0004" stroke="white" stroke-width="4" stroke-miterlimit="10" stroke-linecap="round"/>
</g>
<g opacity="0.3">
<path d="M211.405 23.8105C211.405 23.8105 205.695 23.6105 205.695 17.0105Z" fill="#F7A628"/>
<path d="M211.405 23.8105C211.405 23.8105 205.695 23.6105 205.695 17.0105" stroke="white" stroke-width="4" stroke-miterlimit="10" stroke-linecap="round"/>
</g>
<g opacity="0.3">
<path d="M392.766 38.9104C392.766 38.9104 392.586 45.1604 386.556 45.1604Z" fill="#F7A628"/>
<path d="M392.766 38.9104C392.766 38.9104 392.586 45.1604 386.556 45.1604" stroke="white" stroke-width="4" stroke-miterlimit="10" stroke-linecap="round"/>
</g>
<path opacity="0.3" d="M354.216 8.5603H375.316" stroke="white" stroke-width="4" stroke-miterlimit="10" stroke-linecap="round"/>
<path opacity="0.3" d="M248.105 13.0005H305.015" stroke="white" stroke-width="4" stroke-miterlimit="10" stroke-linecap="round"/>
<g opacity="0.3">
<path d="M479.056 42.0005C479.056 42.0005 491.366 42.4805 491.366 56.7005Z" fill="#F7A628"/>
<path d="M479.056 42.0005C479.056 42.0005 491.366 42.4805 491.366 56.7005" stroke="white" stroke-width="4" stroke-miterlimit="10" stroke-linecap="round"/>
</g>
<g opacity="0.3">
<path d="M518.286 25.3004C518.286 25.3004 527.346 25.1604 527.346 35.0004Z" fill="#F7A628"/>
<path d="M518.286 25.3004C518.286 25.3004 527.346 25.1604 527.346 35.0004" stroke="white" stroke-width="4" stroke-miterlimit="10" stroke-linecap="round"/>
</g>
<g opacity="0.3">
<path d="M592.815 38.9104C592.815 38.9104 592.635 45.1604 586.605 45.1604Z" fill="#F7A628"/>
<path d="M592.815 38.9104C592.815 38.9104 592.635 45.1604 586.605 45.1604" stroke="white" stroke-width="4" stroke-miterlimit="10" stroke-linecap="round"/>
</g>
<path opacity="0.3" d="M554.266 8.5603H575.366" stroke="white" stroke-width="4" stroke-miterlimit="10" stroke-linecap="round"/>
<path opacity="0.3" d="M448.156 13.0005H505.066" stroke="white" stroke-width="4" stroke-miterlimit="10" stroke-linecap="round"/>
<g opacity="0.3">
<path d="M679.065 42.0005C679.065 42.0005 691.375 42.4805 691.375 56.7005Z" fill="#F7A628"/>
<path d="M679.065 42.0005C679.065 42.0005 691.375 42.4805 691.375 56.7005" stroke="white" stroke-width="4" stroke-miterlimit="10" stroke-linecap="round"/>
</g>
<g opacity="0.3">
<path d="M718.286 25.3004C718.286 25.3004 727.356 25.1604 727.356 35.0004Z" fill="#F7A628"/>
<path d="M718.286 25.3004C718.286 25.3004 727.356 25.1604 727.356 35.0004" stroke="white" stroke-width="4" stroke-miterlimit="10" stroke-linecap="round"/>
</g>
<g opacity="0.3">
<path d="M611.456 23.8105C611.456 23.8105 605.746 23.6105 605.746 17.0105Z" fill="#F7A628"/>
<path d="M611.456 23.8105C611.456 23.8105 605.746 23.6105 605.746 17.0105" stroke="white" stroke-width="4" stroke-miterlimit="10" stroke-linecap="round"/>
</g>
<g opacity="0.3">
<path d="M792.816 38.9104C792.816 38.9104 792.636 45.1604 786.616 45.1604Z" fill="#F7A628"/>
<path d="M792.816 38.9104C792.816 38.9104 792.636 45.1604 786.616 45.1604" stroke="white" stroke-width="4" stroke-miterlimit="10" stroke-linecap="round"/>
</g>
<path opacity="0.3" d="M754.275 8.5603H775.375" stroke="white" stroke-width="4" stroke-miterlimit="10" stroke-linecap="round"/>
<path opacity="0.3" d="M648.156 13.0005H705.066" stroke="white" stroke-width="4" stroke-miterlimit="10" stroke-linecap="round"/>
</svg>
