<svg width="212" height="126" viewBox="0 0 212 126" fill="none" xmlns="http://www.w3.org/2000/svg">
<path d="M6 0H206V84.36L129.74 123.12C126.185 124.922 122.256 125.861 118.27 125.86H6V0Z" fill="#073737"/>
<path d="M1.0002 6V22.55C1.0002 26.66 4.0002 30 7.8002 30H7.8902C11.6502 30 14.6902 33.34 14.7002 37.45V42.55C14.7002 46.66 17.7002 49.99 21.5002 50H26.2402C30.0002 50 33.0002 53.34 33.0002 57.45V62.55C33.0002 66.67 36.0002 70 39.8102 70H44.5002C48.2502 70 51.2902 66.66 51.3002 62.55V57.45C51.3002 53.33 54.3002 50 58.1102 50H81.0002C84.7502 50 87.8002 46.66 87.8002 42.55V37.45C87.8002 33.33 90.8002 30 94.6102 30H99.2602C103.01 30 106.06 33.34 106.06 37.45V62.55C106.06 66.67 109.12 70 112.87 70H117.53C121.29 70 124.33 66.66 124.33 62.55V57.45C124.33 53.33 127.39 50 131.14 50H154C157.76 50 160.8 46.66 160.8 42.55V37.45C160.8 33.33 163.86 30 167.62 30H172.31C176.07 30 179.11 33.34 179.12 37.45V42.55C179.12 46.67 182.17 50 185.93 50H190.57C194.33 50 197.37 46.66 197.38 42.55V37.45C197.38 33.33 200.38 30 204.19 30C208 30 211 26.66 211 22.55V6.43C211.038 5.62137 210.915 4.81327 210.64 4.05205C210.365 3.29083 209.942 2.59147 209.395 1.99409C208.849 1.3967 208.19 0.913043 207.457 0.570851C206.723 0.228658 205.929 0.0346657 205.12 0L6.4702 0C5.7126 0.0300017 4.96861 0.210845 4.28177 0.531942C3.59493 0.853039 2.97906 1.30794 2.4702 1.87C1.45595 2.99967 0.927784 4.48355 1.0002 6V6Z" fill="#F7A729"/>
<path opacity="0.3" d="M132 42C132 42 119.7 42.48 119.7 56.7" stroke="white" stroke-width="4" stroke-miterlimit="10" stroke-linecap="round"/>
<path opacity="0.3" d="M92.7705 25.2999C92.7705 25.2999 83.7005 25.1599 83.7005 34.9999" stroke="white" stroke-width="4" stroke-miterlimit="10" stroke-linecap="round"/>
<path opacity="0.3" d="M199.601 23.81C199.601 23.81 205.311 23.61 205.311 17.01" stroke="white" stroke-width="4" stroke-miterlimit="10" stroke-linecap="round"/>
<path opacity="0.3" d="M18.2402 38.9099C18.2402 38.9099 18.4202 45.1599 24.4502 45.1599" stroke="white" stroke-width="4" stroke-miterlimit="10" stroke-linecap="round"/>
<path opacity="0.3" d="M56.79 8.56006H35.69" stroke="white" stroke-width="4" stroke-miterlimit="10" stroke-linecap="round"/>
<path opacity="0.3" d="M162.9 13H106" stroke="white" stroke-width="4" stroke-miterlimit="10" stroke-linecap="round"/>
</svg>
