<svg width="411" height="126" viewBox="0 0 411 126" fill="none" xmlns="http://www.w3.org/2000/svg">
<path d="M405 0.860107H5V125.86H405V0.860107Z" fill="#073737"/>
<path d="M203.21 30.0001H203.12C199.36 30.0001 196.32 33.3401 196.31 37.4501V42.5501C196.31 46.6601 193.31 49.9901 189.51 50.0001H184.77C181 50.0001 178 53.3401 178 57.4501V62.5501C178 66.6701 175 70.0001 171.19 70.0001H166.5C162.75 70.0001 159.71 66.6601 159.7 62.5501V57.4501C159.7 53.3301 156.7 50.0001 152.89 50.0001H130C126.25 50.0001 123.2 46.6601 123.2 42.5501V37.4501C123.2 33.3301 120.2 30.0001 116.39 30.0001H111.74C107.98 30.0001 104.94 33.3401 104.94 37.4501V62.5501C104.94 66.6701 101.88 70.0001 98.1298 70.0001H93.4698C89.7098 70.0001 86.6698 66.6601 86.6698 62.5501V57.4501C86.6698 53.3301 83.6098 50.0001 79.8598 50.0001H56.9998C53.2398 50.0001 50.1998 46.6601 50.1898 42.5501V37.4501C50.1898 33.3301 47.1898 30.0001 43.3798 30.0001H38.6898C34.9298 30.0001 31.8898 33.3401 31.8798 37.4501V42.5501C31.8798 46.6701 28.8298 50.0001 25.0698 50.0001H20.4298C16.6698 50.0001 13.6298 46.6601 13.6198 42.5501V37.4501C13.6198 33.3301 10.6198 30.0001 6.8098 30.0001C5.89939 29.9923 5.00077 29.7933 4.17217 29.416C3.34357 29.0387 2.60346 28.4916 1.9998 27.8101C0.696788 26.3698 -0.0171051 24.4922 -0.000198649 22.5501V6.43007C-0.0377968 5.62144 0.0846168 4.81334 0.360021 4.05212C0.635425 3.2909 1.0584 2.59154 1.60469 1.99416C2.15098 1.39677 2.80983 0.913113 3.54345 0.57092C4.27707 0.228728 5.07104 0.0347352 5.8798 6.94905e-05H204.53C204.748 -0.00279279 204.965 0.0139413 205.18 0.0500695C205.41 0.0500695 205.64 0.0500695 205.88 0.0500695H404.53C406.04 0.125315 407.46 0.791433 408.484 1.90463C409.507 3.01783 410.052 4.48882 410 6.00007V22.5501C410 26.6601 407 30.0001 403.2 30.0001H403.11C399.35 30.0001 396.31 33.3401 396.3 37.4501V42.5501C396.3 46.6601 393.3 49.9901 389.5 50.0001H384.76C381 50.0001 378 53.3401 378 57.4501V62.5501C378 66.6701 375 70.0001 371.19 70.0001H366.5C362.75 70.0001 359.71 66.6601 359.7 62.5501V57.4501C359.7 53.3301 356.7 50.0001 352.89 50.0001H330C326.25 50.0001 323.2 46.6601 323.2 42.5501V37.4501C323.2 33.3301 320.2 30.0001 316.39 30.0001H311.74C307.99 30.0001 304.94 33.3401 304.94 37.4501V62.5501C304.94 66.6701 301.88 70.0001 298.13 70.0001H293.48C289.72 70.0001 286.68 66.6601 286.68 62.5501V57.4501C286.68 53.3301 283.62 50.0001 279.87 50.0001H257C253.24 50.0001 250.2 46.6601 250.2 42.5501V37.4501C250.2 33.3301 247.14 30.0001 243.38 30.0001H238.74C234.98 30.0001 231.94 33.3401 231.93 37.4501V42.5501C231.93 46.6701 228.93 50.0001 225.12 50.0001H220.48C216.72 50.0001 213.68 46.6601 213.67 42.5501V37.4501C213.67 33.3301 210.62 30.0001 206.86 30.0001" fill="#F7A729"/>
<g opacity="0.3">
<path opacity="0.3" d="M79 42C79 42 91.31 42.48 91.31 56.7L79 42Z" fill="#F7A729"/>
<path opacity="0.3" d="M79 42C79 42 91.31 42.48 91.31 56.7" stroke="white" stroke-width="4" stroke-miterlimit="10" stroke-linecap="round"/>
</g>
<g opacity="0.3">
<path opacity="0.3" d="M118.229 25.3002C118.229 25.3002 127.289 25.1602 127.289 35.0002L118.229 25.3002Z" fill="#F7A729"/>
<path opacity="0.3" d="M118.229 25.3002C118.229 25.3002 127.289 25.1602 127.289 35.0002" stroke="white" stroke-width="4" stroke-miterlimit="10" stroke-linecap="round"/>
</g>
<g opacity="0.3">
<path opacity="0.3" d="M11.3895 23.81C11.3895 23.81 5.68945 23.61 5.68945 17.01L11.3895 23.81Z" fill="#F7A729"/>
<path opacity="0.3" d="M11.3895 23.81C11.3895 23.81 5.68945 23.61 5.68945 17.01" stroke="white" stroke-width="4" stroke-miterlimit="10" stroke-linecap="round"/>
</g>
<g opacity="0.3">
<path opacity="0.3" d="M192.76 38.9102C192.76 38.9102 192.57 45.1602 186.55 45.1602L192.76 38.9102Z" fill="#F7A729"/>
<path opacity="0.3" d="M192.76 38.9102C192.76 38.9102 192.57 45.1602 186.55 45.1602" stroke="white" stroke-width="4" stroke-miterlimit="10" stroke-linecap="round"/>
</g>
<path opacity="0.3" d="M154.21 8.56006H175.31" stroke="white" stroke-width="4" stroke-miterlimit="10" stroke-linecap="round"/>
<path opacity="0.3" d="M48.0996 13H105" stroke="white" stroke-width="4" stroke-miterlimit="10" stroke-linecap="round"/>
<g opacity="0.3">
<path opacity="0.3" d="M279 42C279 42 291.31 42.48 291.31 56.7L279 42Z" fill="#F7A729"/>
<path opacity="0.3" d="M279 42C279 42 291.31 42.48 291.31 56.7" stroke="white" stroke-width="4" stroke-miterlimit="10" stroke-linecap="round"/>
</g>
<g opacity="0.3">
<path opacity="0.3" d="M318.229 25.3002C318.229 25.3002 327.299 25.1602 327.299 35.0002L318.229 25.3002Z" fill="#F7A729"/>
<path opacity="0.3" d="M318.229 25.3002C318.229 25.3002 327.299 25.1602 327.299 35.0002" stroke="white" stroke-width="4" stroke-miterlimit="10" stroke-linecap="round"/>
</g>
<g opacity="0.3">
<path opacity="0.3" d="M211.399 23.81C211.399 23.81 205.689 23.61 205.689 17.01L211.399 23.81Z" fill="#F7A729"/>
<path opacity="0.3" d="M211.399 23.81C211.399 23.81 205.689 23.61 205.689 17.01" stroke="white" stroke-width="4" stroke-miterlimit="10" stroke-linecap="round"/>
</g>
<g opacity="0.3">
<path opacity="0.3" d="M392.76 38.9102C392.76 38.9102 392.58 45.1602 386.55 45.1602L392.76 38.9102Z" fill="#F7A729"/>
<path opacity="0.3" d="M392.76 38.9102C392.76 38.9102 392.58 45.1602 386.55 45.1602" stroke="white" stroke-width="4" stroke-miterlimit="10" stroke-linecap="round"/>
</g>
<path opacity="0.3" d="M354.22 8.56006H375.32" stroke="white" stroke-width="4" stroke-miterlimit="10" stroke-linecap="round"/>
<path opacity="0.3" d="M248.1 13H305" stroke="white" stroke-width="4" stroke-miterlimit="10" stroke-linecap="round"/>
</svg>
