<svg width="211" height="200" viewBox="0 0 211 200" fill="none" xmlns="http://www.w3.org/2000/svg">
<path d="M205.006 0H5.00586V200H205.006V0Z" fill="#043636"/>
<path d="M210.006 6V22.55C210.006 26.66 207.006 30 203.206 30H203.116C199.356 30 196.316 33.34 196.306 37.45V42.55C196.306 46.66 193.306 49.99 189.506 50H184.766C181.006 50 178.006 53.34 178.006 57.45V62.55C178.006 66.67 174.956 70 171.196 70H166.506C162.756 70 159.716 66.66 159.706 62.55V57.45C159.706 53.33 156.706 50 152.896 50H130.006C126.256 50 123.206 46.66 123.206 42.55V37.45C123.206 33.33 120.156 30 116.396 30H111.746C107.996 30 104.946 33.34 104.946 37.45V62.55C104.946 66.67 101.886 70 98.1358 70H93.4658C89.7058 70 86.6658 66.66 86.6658 62.55V57.45C86.6658 53.33 83.6058 50 79.8558 50H56.9458C53.1858 50 50.1458 46.66 50.1458 42.55V37.45C50.1458 33.33 47.0858 30 43.3258 30H38.6858C34.9258 30 31.8858 33.34 31.8758 37.45V42.55C31.8758 46.67 28.8258 50 25.0658 50H20.4258C16.6658 50 13.6258 46.66 13.6158 42.55V37.45C13.6158 33.33 10.6158 30 6.80579 30C3.05579 30 0.0057865 26.66 0.0057865 22.55V6.43C-0.0648272 4.79986 0.513148 3.20812 1.61324 2.00308C2.71334 0.79803 4.24597 0.0778069 5.87579 0H204.526C206.047 0.0726275 207.477 0.744605 208.504 1.86898C209.531 2.99336 210.071 4.47863 210.006 6Z" fill="#F7A627"/>
<path opacity="0.3" d="M79.0059 42C79.0059 42 91.3059 42.48 91.3059 56.7" stroke="white" stroke-width="4" stroke-miterlimit="10" stroke-linecap="round"/>
<path opacity="0.3" d="M118.226 25.2999C118.226 25.2999 127.296 25.1599 127.296 34.9999" stroke="white" stroke-width="4" stroke-miterlimit="10" stroke-linecap="round"/>
<path opacity="0.3" d="M11.3955 23.81C11.3955 23.81 5.68555 23.61 5.68555 17.01" stroke="white" stroke-width="4" stroke-miterlimit="10" stroke-linecap="round"/>
<path opacity="0.3" d="M192.756 38.9099C192.756 38.9099 192.576 45.1599 186.546 45.1599" stroke="white" stroke-width="4" stroke-miterlimit="10" stroke-linecap="round"/>
<path opacity="0.3" d="M154.206 8.56006H175.306" stroke="white" stroke-width="4" stroke-miterlimit="10" stroke-linecap="round"/>
<path opacity="0.3" d="M48.0957 13H105.006" stroke="white" stroke-width="4" stroke-miterlimit="10" stroke-linecap="round"/>
</svg>
