<svg width="812" height="127" viewBox="0 0 812 127" fill="none" xmlns="http://www.w3.org/2000/svg">
<path d="M806 4.38989H6V84.7899L82.24 123.53C85.8043 125.347 89.749 126.293 93.75 126.29H718.13C722.123 126.291 726.06 125.348 729.62 123.54L806 84.7899V4.38989Z" fill="#073737"/>
<path d="M404.22 29.9999H404.13C400.37 29.9999 397.33 33.3399 397.32 37.4499V42.5499C397.32 46.6599 394.32 49.9899 390.52 49.9999H385.78C382 49.9999 379 53.3399 379 57.4499V62.5499C379 66.6699 376 69.9999 372.2 69.9999H367.55C363.8 69.9999 360.76 66.6599 360.75 62.5499V57.4499C360.75 53.3299 357.75 49.9999 353.94 49.9999H331C327.25 49.9999 324.2 46.6599 324.2 42.5499V37.4499C324.2 33.3299 321.2 29.9999 317.39 29.9999H312.74C308.99 29.9999 305.94 33.3399 305.94 37.4499V62.5499C305.94 66.6699 302.88 69.9999 299.13 69.9999H294.48C290.72 69.9999 287.68 66.6599 287.68 62.5499V57.4499C287.68 53.3299 284.62 49.9999 280.87 49.9999H258C254.24 49.9999 251.2 46.6599 251.2 42.5499V37.4499C251.2 33.3299 248.14 29.9999 244.38 29.9999H239.74C235.98 29.9999 232.94 33.3399 232.93 37.4499V42.5499C232.93 46.6699 229.93 49.9999 226.12 49.9999H221.48C217.72 49.9999 214.68 46.6599 214.67 42.5499V37.4499C214.67 33.3299 211.62 29.9999 207.86 29.9999H204.16C200.4 29.9999 197.36 33.3399 197.35 37.4499V42.5499C197.35 46.6599 194.35 49.9899 190.55 49.9999H185.81C182 49.9999 179 53.3399 179 57.4499V62.5499C179 66.6699 176 69.9999 172.19 69.9999H167.5C163.75 69.9999 160.71 66.6599 160.7 62.5499V57.4499C160.7 53.3299 157.7 49.9999 153.89 49.9999H131C127.25 49.9999 124.2 46.6599 124.2 42.5499V37.4499C124.2 33.3299 121.2 29.9999 117.39 29.9999H112.74C108.98 29.9999 105.94 33.3399 105.94 37.4499V62.5499C105.94 66.6699 102.88 69.9999 99.1298 69.9999H94.4698C90.7098 69.9999 87.6698 66.6599 87.6698 62.5499V57.4499C87.6698 53.3299 84.6098 49.9999 80.8598 49.9999H57.9998C54.2398 49.9999 51.1998 46.6599 51.1898 42.5499V37.4499C51.1898 33.3299 48.1898 29.9999 44.3798 29.9999H39.6898C35.9298 29.9999 32.8898 33.3399 32.8798 37.4499V42.5499C32.8798 46.6699 29.8298 49.9999 26.0698 49.9999H21.4298C17.6698 49.9999 14.6298 46.6599 14.6198 42.5499V37.4499C14.6198 33.3299 11.6198 29.9999 7.8098 29.9999C6.89939 29.9921 6.00077 29.7931 5.17217 29.4158C4.34357 29.0386 3.60346 28.4915 2.9998 27.8099C1.69679 26.3696 0.982895 24.4921 0.999801 22.5499V6.42991C0.962203 5.62127 1.08462 4.81318 1.36002 4.05196C1.63543 3.29074 2.0584 2.59138 2.60469 1.994C3.15098 1.39661 3.80983 0.91295 4.54345 0.570758C5.27707 0.228566 6.07104 0.0345731 6.8798 -9.25476e-05H205.53C205.751 -0.0033391 205.972 0.0133956 206.19 0.0499075C206.42 0.0499075 206.65 0.0499075 206.89 0.0499075H605.59C605.811 0.0466609 606.032 0.0633956 606.25 0.0999075C606.48 0.0999075 606.71 0.0999075 606.95 0.0999075H805.59C807.109 0.177681 808.536 0.851198 809.562 1.9744C810.588 3.09759 811.13 4.57992 811.07 6.09991V22.5499C811.07 26.6599 808.07 29.9899 804.27 29.9999H804.18C800.42 29.9999 797.38 33.3399 797.37 37.4499V42.5499C797.37 46.6599 794.37 49.9899 790.57 49.9999H785.83C782.08 49.9999 779.04 53.3399 779.03 57.4499V62.5499C779.03 66.6699 776.03 69.9999 772.22 69.9999H767.57C763.82 69.9999 760.78 66.6599 760.77 62.5499V57.4499C760.77 53.3299 757.77 49.9999 753.96 49.9999H731C727.25 49.9999 724.2 46.6599 724.2 42.5499V37.4499C724.2 33.3299 721.2 29.9999 717.39 29.9999H712.74C708.99 29.9999 705.94 33.3399 705.94 37.4499V62.5499C705.94 66.6699 702.88 69.9999 699.13 69.9999H694.48C690.72 69.9999 687.68 66.6599 687.68 62.5499V57.4499C687.68 53.3299 684.62 49.9999 680.87 49.9999H658C654.24 49.9999 651.2 46.6599 651.2 42.5499V37.4499C651.2 33.3299 648.14 29.9999 644.38 29.9999H639.74C635.98 29.9999 632.94 33.3399 632.93 37.4499V42.5499C632.93 46.6699 629.93 49.9999 626.13 49.9999H621.5C617.74 49.9999 614.7 46.6599 614.69 42.5499V37.4499C614.69 33.3299 611.69 29.9999 607.88 29.9999H604.18C600.42 29.9999 597.38 33.3399 597.37 37.4499V42.5499C597.37 46.6599 594.37 49.9899 590.57 49.9999H585.83C582.08 49.9999 579.04 53.3399 579.03 57.4499V62.5499C579.03 66.6699 576.03 69.9999 572.22 69.9999H567.57C563.82 69.9999 560.78 66.6599 560.77 62.5499V57.4499C560.77 53.3299 557.77 49.9999 553.96 49.9999H531C527.25 49.9999 524.2 46.6599 524.2 42.5499V37.4499C524.2 33.3299 521.2 29.9999 517.39 29.9999H512.74C508.98 29.9999 505.94 33.3399 505.94 37.4499V62.5499C505.94 66.6699 502.88 69.9999 499.13 69.9999H494.48C490.72 69.9999 487.68 66.6599 487.68 62.5499V57.4499C487.68 53.3299 484.62 49.9999 480.87 49.9999H458C454.24 49.9999 451.2 46.6599 451.19 42.5499V37.4499C451.19 33.3299 448.14 29.9999 444.38 29.9999H439.74C435.98 29.9999 432.94 33.3399 432.93 37.4499V42.5499C432.93 46.6699 429.88 49.9999 426.12 49.9999H421.48C417.72 49.9999 414.68 46.6599 414.67 42.5499V37.4499C414.67 33.3299 411.62 29.9999 407.86 29.9999" fill="#F7A729"/>
<g opacity="0.3">
<path opacity="0.3" d="M80 42C80 42 92.31 42.48 92.31 56.7L80 42Z" fill="#F7A729"/>
<path opacity="0.3" d="M80 42C80 42 92.31 42.48 92.31 56.7" stroke="white" stroke-width="4" stroke-miterlimit="10" stroke-linecap="round"/>
</g>
<g opacity="0.3">
<path opacity="0.3" d="M119.229 25.2999C119.229 25.2999 128.299 25.1599 128.299 34.9999L119.229 25.2999Z" fill="#F7A729"/>
<path opacity="0.3" d="M119.229 25.2999C119.229 25.2999 128.299 25.1599 128.299 34.9999" stroke="white" stroke-width="4" stroke-miterlimit="10" stroke-linecap="round"/>
</g>
<g opacity="0.3">
<path opacity="0.3" d="M12.3995 23.81C12.3995 23.81 6.68945 23.61 6.68945 17.01L12.3995 23.81Z" fill="#F7A729"/>
<path opacity="0.3" d="M12.3995 23.81C12.3995 23.81 6.68945 23.61 6.68945 17.01" stroke="white" stroke-width="4" stroke-miterlimit="10" stroke-linecap="round"/>
</g>
<g opacity="0.3">
<path opacity="0.3" d="M193.76 38.9099C193.76 38.9099 193.58 45.1599 187.55 45.1599L193.76 38.9099Z" fill="#F7A729"/>
<path opacity="0.3" d="M193.76 38.9099C193.76 38.9099 193.58 45.1599 187.55 45.1599" stroke="white" stroke-width="4" stroke-miterlimit="10" stroke-linecap="round"/>
</g>
<path opacity="0.3" d="M155.21 8.55981H176.31" stroke="white" stroke-width="4" stroke-miterlimit="10" stroke-linecap="round"/>
<path opacity="0.3" d="M49.0996 13H106" stroke="white" stroke-width="4" stroke-miterlimit="10" stroke-linecap="round"/>
<g opacity="0.3">
<path opacity="0.3" d="M280 42C280 42 292.31 42.48 292.31 56.7L280 42Z" fill="#F7A729"/>
<path opacity="0.3" d="M280 42C280 42 292.31 42.48 292.31 56.7" stroke="white" stroke-width="4" stroke-miterlimit="10" stroke-linecap="round"/>
</g>
<g opacity="0.3">
<path opacity="0.3" d="M319.229 25.2999C319.229 25.2999 328.299 25.1599 328.299 34.9999L319.229 25.2999Z" fill="#F7A729"/>
<path opacity="0.3" d="M319.229 25.2999C319.229 25.2999 328.299 25.1599 328.299 34.9999" stroke="white" stroke-width="4" stroke-miterlimit="10" stroke-linecap="round"/>
</g>
<g opacity="0.3">
<path opacity="0.3" d="M212.4 23.81C212.4 23.81 206.7 23.61 206.7 17.01L212.4 23.81Z" fill="#F7A729"/>
<path opacity="0.3" d="M212.4 23.81C212.4 23.81 206.7 23.61 206.7 17.01" stroke="white" stroke-width="4" stroke-miterlimit="10" stroke-linecap="round"/>
</g>
<g opacity="0.3">
<path opacity="0.3" d="M393.77 38.9099C393.77 38.9099 393.59 45.1599 387.56 45.1599L393.77 38.9099Z" fill="#F7A729"/>
<path opacity="0.3" d="M393.77 38.9099C393.77 38.9099 393.59 45.1599 387.56 45.1599" stroke="white" stroke-width="4" stroke-miterlimit="10" stroke-linecap="round"/>
</g>
<path opacity="0.3" d="M355.22 8.55981H376.32" stroke="white" stroke-width="4" stroke-miterlimit="10" stroke-linecap="round"/>
<path opacity="0.3" d="M249.1 13H306" stroke="white" stroke-width="4" stroke-miterlimit="10" stroke-linecap="round"/>
<g opacity="0.3">
<path opacity="0.3" d="M480.06 42C480.06 42 492.37 42.48 492.37 56.7L480.06 42Z" fill="#F7A729"/>
<path opacity="0.3" d="M480.06 42C480.06 42 492.37 42.48 492.37 56.7" stroke="white" stroke-width="4" stroke-miterlimit="10" stroke-linecap="round"/>
</g>
<g opacity="0.3">
<path opacity="0.3" d="M519.29 25.2999C519.29 25.2999 528.35 25.1599 528.35 34.9999L519.29 25.2999Z" fill="#F7A729"/>
<path opacity="0.3" d="M519.29 25.2999C519.29 25.2999 528.35 25.1599 528.35 34.9999" stroke="white" stroke-width="4" stroke-miterlimit="10" stroke-linecap="round"/>
</g>
<g opacity="0.3">
<path opacity="0.3" d="M593.82 38.9099C593.82 38.9099 593.64 45.1599 587.6 45.1599L593.82 38.9099Z" fill="#F7A729"/>
<path opacity="0.3" d="M593.82 38.9099C593.82 38.9099 593.64 45.1599 587.6 45.1599" stroke="white" stroke-width="4" stroke-miterlimit="10" stroke-linecap="round"/>
</g>
<path opacity="0.3" d="M555.27 8.55981H576.37" stroke="white" stroke-width="4" stroke-miterlimit="10" stroke-linecap="round"/>
<path opacity="0.3" d="M449.16 13H506.07" stroke="white" stroke-width="4" stroke-miterlimit="10" stroke-linecap="round"/>
<g opacity="0.3">
<path opacity="0.3" d="M680.07 42C680.07 42 692.37 42.48 692.37 56.7L680.07 42Z" fill="#F7A729"/>
<path opacity="0.3" d="M680.07 42C680.07 42 692.37 42.48 692.37 56.7" stroke="white" stroke-width="4" stroke-miterlimit="10" stroke-linecap="round"/>
</g>
<g opacity="0.3">
<path opacity="0.3" d="M719.29 25.2999C719.29 25.2999 728.36 25.1599 728.36 34.9999L719.29 25.2999Z" fill="#F7A729"/>
<path opacity="0.3" d="M719.29 25.2999C719.29 25.2999 728.36 25.1599 728.36 34.9999" stroke="white" stroke-width="4" stroke-miterlimit="10" stroke-linecap="round"/>
</g>
<g opacity="0.3">
<path opacity="0.3" d="M612.46 23.81C612.46 23.81 606.75 23.61 606.75 17.01L612.46 23.81Z" fill="#F7A729"/>
<path opacity="0.3" d="M612.46 23.81C612.46 23.81 606.75 23.61 606.75 17.01" stroke="white" stroke-width="4" stroke-miterlimit="10" stroke-linecap="round"/>
</g>
<g opacity="0.3">
<path opacity="0.3" d="M793.82 38.9099C793.82 38.9099 793.64 45.1599 787.62 45.1599L793.82 38.9099Z" fill="#F7A729"/>
<path opacity="0.3" d="M793.82 38.9099C793.82 38.9099 793.64 45.1599 787.62 45.1599" stroke="white" stroke-width="4" stroke-miterlimit="10" stroke-linecap="round"/>
</g>
<path opacity="0.3" d="M755.28 8.55981H776.37" stroke="white" stroke-width="4" stroke-miterlimit="10" stroke-linecap="round"/>
<path opacity="0.3" d="M649.16 13H706.07" stroke="white" stroke-width="4" stroke-miterlimit="10" stroke-linecap="round"/>
</svg>
