<svg width="412" height="126" viewBox="0 0 412 126" fill="none" xmlns="http://www.w3.org/2000/svg">
<path d="M406 0.860107H6V84.3601L82.26 123.12C85.8118 124.921 89.7378 125.86 93.72 125.86H318.16C322.142 125.86 326.068 124.921 329.62 123.12L406 84.3601V0.860107Z" fill="#073737"/>
<path d="M204.21 30.0001H204.12C200.36 30.0001 197.32 33.3401 197.31 37.4501V42.5501C197.31 46.6601 194.31 49.9901 190.51 50.0001H185.77C182 50.0001 179 53.3401 179 57.4501V62.5501C179 66.6701 176 70.0001 172.19 70.0001H167.5C163.75 70.0001 160.71 66.6601 160.7 62.5501V57.4501C160.7 53.3301 157.7 50.0001 153.89 50.0001H131C127.25 50.0001 124.2 46.6601 124.2 42.5501V37.4501C124.2 33.3301 121.2 30.0001 117.39 30.0001H112.74C108.98 30.0001 105.94 33.3401 105.94 37.4501V62.5501C105.94 66.6701 102.88 70.0001 99.1298 70.0001H94.4698C90.7098 70.0001 87.6698 66.6601 87.6698 62.5501V57.4501C87.6698 53.3301 84.6098 50.0001 80.8598 50.0001H57.9998C54.2398 50.0001 51.1998 46.6601 51.1898 42.5501V37.4501C51.1898 33.3301 48.1898 30.0001 44.3798 30.0001H39.6898C35.9298 30.0001 32.8898 33.3401 32.8798 37.4501V42.5501C32.8798 46.6701 29.8298 50.0001 26.0698 50.0001H21.4298C17.6698 50.0001 14.6298 46.6601 14.6198 42.5501V37.4501C14.6198 33.3301 11.6198 30.0001 7.8098 30.0001C6.89939 29.9923 6.00077 29.7933 5.17217 29.416C4.34357 29.0387 3.60346 28.4916 2.9998 27.8101C1.69679 26.3698 0.982895 24.4922 0.999801 22.5501V6.43007C0.962203 5.62144 1.08462 4.81334 1.36002 4.05212C1.63543 3.2909 2.0584 2.59154 2.60469 1.99416C3.15098 1.39677 3.80983 0.913113 4.54345 0.57092C5.27707 0.228728 6.07104 0.0347352 6.8798 6.94905e-05H205.53C205.748 -0.00279279 205.965 0.0139413 206.18 0.0500695C206.41 0.0500695 206.64 0.0500695 206.88 0.0500695H405.53C407.04 0.125315 408.46 0.791433 409.484 1.90463C410.507 3.01783 411.052 4.48882 411 6.00007V22.5501C411 26.6601 408 30.0001 404.2 30.0001H404.11C400.35 30.0001 397.31 33.3401 397.3 37.4501V42.5501C397.3 46.6601 394.3 49.9901 390.5 50.0001H385.76C382 50.0001 379 53.3401 379 57.4501V62.5501C379 66.6701 376 70.0001 372.19 70.0001H367.5C363.75 70.0001 360.71 66.6601 360.7 62.5501V57.4501C360.7 53.3301 357.7 50.0001 353.89 50.0001H331C327.25 50.0001 324.2 46.6601 324.2 42.5501V37.4501C324.2 33.3301 321.2 30.0001 317.39 30.0001H312.74C308.99 30.0001 305.94 33.3401 305.94 37.4501V62.5501C305.94 66.6701 302.88 70.0001 299.13 70.0001H294.48C290.72 70.0001 287.68 66.6601 287.68 62.5501V57.4501C287.68 53.3301 284.62 50.0001 280.87 50.0001H258C254.24 50.0001 251.2 46.6601 251.2 42.5501V37.4501C251.2 33.3301 248.14 30.0001 244.38 30.0001H239.74C235.98 30.0001 232.94 33.3401 232.93 37.4501V42.5501C232.93 46.6701 229.93 50.0001 226.12 50.0001H221.48C217.72 50.0001 214.68 46.6601 214.67 42.5501V37.4501C214.67 33.3301 211.62 30.0001 207.86 30.0001" fill="#F7A729"/>
<g opacity="0.3">
<path opacity="0.3" d="M80 42C80 42 92.31 42.48 92.31 56.7L80 42Z" fill="#F7A729"/>
<path opacity="0.3" d="M80 42C80 42 92.31 42.48 92.31 56.7" stroke="white" stroke-width="4" stroke-miterlimit="10" stroke-linecap="round"/>
</g>
<g opacity="0.3">
<path opacity="0.3" d="M119.229 25.3002C119.229 25.3002 128.289 25.1602 128.289 35.0002L119.229 25.3002Z" fill="#F7A729"/>
<path opacity="0.3" d="M119.229 25.3002C119.229 25.3002 128.289 25.1602 128.289 35.0002" stroke="white" stroke-width="4" stroke-miterlimit="10" stroke-linecap="round"/>
</g>
<g opacity="0.3">
<path opacity="0.3" d="M12.3895 23.81C12.3895 23.81 6.68945 23.61 6.68945 17.01L12.3895 23.81Z" fill="#F7A729"/>
<path opacity="0.3" d="M12.3895 23.81C12.3895 23.81 6.68945 23.61 6.68945 17.01" stroke="white" stroke-width="4" stroke-miterlimit="10" stroke-linecap="round"/>
</g>
<g opacity="0.3">
<path opacity="0.3" d="M193.76 38.9102C193.76 38.9102 193.57 45.1602 187.55 45.1602L193.76 38.9102Z" fill="#F7A729"/>
<path opacity="0.3" d="M193.76 38.9102C193.76 38.9102 193.57 45.1602 187.55 45.1602" stroke="white" stroke-width="4" stroke-miterlimit="10" stroke-linecap="round"/>
</g>
<path opacity="0.3" d="M155.21 8.56006H176.31" stroke="white" stroke-width="4" stroke-miterlimit="10" stroke-linecap="round"/>
<path opacity="0.3" d="M49.0996 13H106" stroke="white" stroke-width="4" stroke-miterlimit="10" stroke-linecap="round"/>
<g opacity="0.3">
<path opacity="0.3" d="M280 42C280 42 292.31 42.48 292.31 56.7L280 42Z" fill="#F7A729"/>
<path opacity="0.3" d="M280 42C280 42 292.31 42.48 292.31 56.7" stroke="white" stroke-width="4" stroke-miterlimit="10" stroke-linecap="round"/>
</g>
<g opacity="0.3">
<path opacity="0.3" d="M319.229 25.3002C319.229 25.3002 328.299 25.1602 328.299 35.0002L319.229 25.3002Z" fill="#F7A729"/>
<path opacity="0.3" d="M319.229 25.3002C319.229 25.3002 328.299 25.1602 328.299 35.0002" stroke="white" stroke-width="4" stroke-miterlimit="10" stroke-linecap="round"/>
</g>
<g opacity="0.3">
<path opacity="0.3" d="M212.399 23.81C212.399 23.81 206.689 23.61 206.689 17.01L212.399 23.81Z" fill="#F7A729"/>
<path opacity="0.3" d="M212.399 23.81C212.399 23.81 206.689 23.61 206.689 17.01" stroke="white" stroke-width="4" stroke-miterlimit="10" stroke-linecap="round"/>
</g>
<g opacity="0.3">
<path opacity="0.3" d="M393.76 38.9102C393.76 38.9102 393.58 45.1602 387.55 45.1602L393.76 38.9102Z" fill="#F7A729"/>
<path opacity="0.3" d="M393.76 38.9102C393.76 38.9102 393.58 45.1602 387.55 45.1602" stroke="white" stroke-width="4" stroke-miterlimit="10" stroke-linecap="round"/>
</g>
<path opacity="0.3" d="M355.22 8.56006H376.32" stroke="white" stroke-width="4" stroke-miterlimit="10" stroke-linecap="round"/>
<path opacity="0.3" d="M249.1 13H306" stroke="white" stroke-width="4" stroke-miterlimit="10" stroke-linecap="round"/>
</svg>
