<svg width="411" height="200" viewBox="0 0 411 200" fill="none" xmlns="http://www.w3.org/2000/svg">
<path d="M404.996 0.000488281H4.99609V200H404.996V0.000488281Z" fill="#043636"/>
<path d="M203.206 30.0004H203.116C199.356 30.0004 196.316 33.3404 196.306 37.4504V42.5504C196.306 46.6604 193.306 49.9904 189.506 50.0004H184.766C181.006 50.0004 178.006 53.3404 178.006 57.4504V62.5504C178.006 66.6704 174.956 70.0004 171.196 70.0004H166.506C162.756 70.0004 159.716 66.6604 159.706 62.5504V57.4504C159.706 53.3304 156.706 50.0004 152.896 50.0004H130.006C126.256 50.0004 123.206 46.6604 123.206 42.5504V37.4504C123.206 33.3304 120.156 30.0004 116.396 30.0004H111.746C107.986 30.0004 104.946 33.3404 104.946 37.4504V62.5504C104.946 66.6704 101.886 70.0004 98.1358 70.0004H93.4658C89.7058 70.0004 86.6658 66.6604 86.6658 62.5504V57.4504C86.6658 53.3304 83.6058 50.0004 79.8558 50.0004H56.9458C53.1858 50.0004 50.1458 46.6604 50.1358 42.5504V37.4504C50.1358 33.3304 47.0858 30.0004 43.3258 30.0004H38.6858C34.9258 30.0004 31.8858 33.3404 31.8758 37.4504V42.5504C31.8758 46.6704 28.8258 50.0004 25.0658 50.0004H20.4258C16.6658 50.0004 13.6258 46.6604 13.6158 42.5504V37.4504C13.6158 33.3304 10.6158 30.0004 6.80579 30.0004C5.89738 29.9893 5.00127 29.7888 4.17476 29.4118C3.34825 29.0347 2.60951 28.4892 2.00579 27.8104C0.70783 26.367 -0.00528724 24.4915 0.0057865 22.5504V6.4304C-0.0648272 4.80026 0.513148 3.20852 1.61324 2.00347C2.71334 0.798427 4.24597 0.078203 5.87579 0.000396146H204.526C204.744 -0.00285242 204.961 0.0138844 205.176 0.0503961C205.409 0.0355055 205.643 0.0355055 205.876 0.0503961H404.526C406.038 0.1231 407.46 0.788112 408.486 1.90159C409.512 3.01507 410.057 4.4875 410.006 6.0004V22.5504C410.006 26.6604 407.006 30.0004 403.206 30.0004H403.116C399.356 30.0004 396.316 33.3404 396.306 37.4504V42.5504C396.306 46.6604 393.306 49.9904 389.506 50.0004H384.766C381.006 50.0004 378.006 53.3404 378.006 57.4504V62.5504C378.006 66.6704 375.006 70.0004 371.196 70.0004H366.506C362.756 70.0004 359.716 66.6604 359.706 62.5504V57.4504C359.706 53.3304 356.656 50.0004 352.896 50.0004H330.006C326.256 50.0004 323.206 46.6604 323.206 42.5504V37.4504C323.206 33.3304 320.156 30.0004 316.396 30.0004H311.746C307.996 30.0004 304.946 33.3404 304.946 37.4504V62.5504C304.946 66.6704 301.886 70.0004 298.136 70.0004H293.486C289.726 70.0004 286.686 66.6604 286.686 62.5504V57.4504C286.686 53.3304 283.626 50.0004 279.876 50.0004H256.946C253.186 50.0004 250.146 46.6604 250.146 42.5504V37.4504C250.146 33.3304 247.086 30.0004 243.326 30.0004H238.686C234.926 30.0004 231.886 33.3404 231.876 37.4504V42.5504C231.876 46.6704 228.826 50.0004 225.066 50.0004H220.426C216.666 50.0004 213.626 46.6604 213.616 42.5504V37.4504C213.616 33.3304 210.566 30.0004 206.806 30.0004" fill="#F7A628"/>
<g opacity="0.3">
<path d="M79.0059 42.0005C79.0059 42.0005 91.3159 42.4805 91.3159 56.7005Z" fill="#F7A628"/>
<path d="M79.0059 42.0005C79.0059 42.0005 91.3159 42.4805 91.3159 56.7005" stroke="white" stroke-width="4" stroke-miterlimit="10" stroke-linecap="round"/>
</g>
<g opacity="0.3">
<path d="M118.226 25.3004C118.226 25.3004 127.286 25.1604 127.286 35.0004Z" fill="#F7A628"/>
<path d="M118.226 25.3004C118.226 25.3004 127.286 25.1604 127.286 35.0004" stroke="white" stroke-width="4" stroke-miterlimit="10" stroke-linecap="round"/>
</g>
<g opacity="0.3">
<path d="M11.3855 23.8105C11.3855 23.8105 5.68555 23.6105 5.68555 17.0105Z" fill="#F7A628"/>
<path d="M11.3855 23.8105C11.3855 23.8105 5.68555 23.6105 5.68555 17.0105" stroke="white" stroke-width="4" stroke-miterlimit="10" stroke-linecap="round"/>
</g>
<g opacity="0.3">
<path d="M192.756 38.9104C192.756 38.9104 192.566 45.1604 186.546 45.1604Z" fill="#F7A628"/>
<path d="M192.756 38.9104C192.756 38.9104 192.566 45.1604 186.546 45.1604" stroke="white" stroke-width="4" stroke-miterlimit="10" stroke-linecap="round"/>
</g>
<path opacity="0.3" d="M154.206 8.5603H175.306" stroke="white" stroke-width="4" stroke-miterlimit="10" stroke-linecap="round"/>
<path opacity="0.3" d="M48.0957 13.0005H105.006" stroke="white" stroke-width="4" stroke-miterlimit="10" stroke-linecap="round"/>
<g opacity="0.3">
<path d="M279.006 42.0005C279.006 42.0005 291.316 42.4805 291.316 56.7005Z" fill="#F7A628"/>
<path d="M279.006 42.0005C279.006 42.0005 291.316 42.4805 291.316 56.7005" stroke="white" stroke-width="4" stroke-miterlimit="10" stroke-linecap="round"/>
</g>
<g opacity="0.3">
<path d="M318.226 25.3004C318.226 25.3004 327.296 25.1604 327.296 35.0004Z" fill="#F7A628"/>
<path d="M318.226 25.3004C318.226 25.3004 327.296 25.1604 327.296 35.0004" stroke="white" stroke-width="4" stroke-miterlimit="10" stroke-linecap="round"/>
</g>
<g opacity="0.3">
<path d="M211.396 23.8105C211.396 23.8105 205.686 23.6105 205.686 17.0105Z" fill="#F7A628"/>
<path d="M211.396 23.8105C211.396 23.8105 205.686 23.6105 205.686 17.0105" stroke="white" stroke-width="4" stroke-miterlimit="10" stroke-linecap="round"/>
</g>
<g opacity="0.3">
<path d="M392.756 38.9104C392.756 38.9104 392.576 45.1604 386.546 45.1604Z" fill="#F7A628"/>
<path d="M392.756 38.9104C392.756 38.9104 392.576 45.1604 386.546 45.1604" stroke="white" stroke-width="4" stroke-miterlimit="10" stroke-linecap="round"/>
</g>
<path opacity="0.3" d="M354.216 8.5603H375.316" stroke="white" stroke-width="4" stroke-miterlimit="10" stroke-linecap="round"/>
<path opacity="0.3" d="M248.096 13.0005H305.006" stroke="white" stroke-width="4" stroke-miterlimit="10" stroke-linecap="round"/>
</svg>
