<svg width="10509" height="1080" viewBox="0 0 10509 1080" fill="none" xmlns="http://www.w3.org/2000/svg">
<path d="M10508.6 308.38V1079.49H7881.42V1079.56H2627.14V1079.49H0V308.38H41.51C44.0534 308.38 46.4927 307.37 48.2912 305.571C50.0896 303.773 51.1 301.333 51.1 298.79V214.42C51.1 214.42 20.62 193.62 20.82 159.42H33.18C33.18 159.42 30.71 177.55 51.1 197.32V137H63.45V177C70.4841 170.596 74.7816 161.729 75.45 152.24H87.45C87.45 152.24 89.86 172.17 63.45 193.92V230.79C67.2119 227.616 70.3003 223.721 72.533 219.335C74.7657 214.948 76.0975 210.159 76.45 205.25H88.37C88.37 205.25 90.84 225.64 63.45 247.68V302.28C63.4579 303.904 64.11 305.459 65.2631 306.602C66.4162 307.746 67.9759 308.385 69.6 308.38C82.2021 308.389 94.5647 311.824 105.366 318.316C116.167 324.809 125 334.115 130.92 345.24L157.16 394.57C163.085 405.702 171.926 415.012 182.737 421.505C193.547 427.998 205.92 431.429 218.53 431.43H310.4C311.49 431.43 312.535 430.997 313.306 430.226C314.077 429.455 314.51 428.41 314.51 427.32V382.07C314.51 382.07 285.33 362.16 285.51 329.44H297.34C297.34 329.44 294.97 346.79 314.49 365.71V308H326.31V397.76C329.905 394.72 332.856 390.992 334.989 386.795C337.122 382.598 338.394 378.016 338.73 373.32H350.16C350.16 373.32 352.53 392.83 326.31 413.92V429.41C326.312 429.946 326.521 430.461 326.894 430.847C327.267 431.233 327.774 431.459 328.31 431.48C340.659 431.839 352.689 435.484 363.16 442.041C373.631 448.597 382.164 457.827 387.88 468.78L427.24 544C434.461 557.631 436.877 573.297 434.1 588.47H893.44L929 434.4C936.7 400.96 976.09 376.49 1022.22 376.49H1131.67C1156.23 376.49 1179.39 383.49 1196.67 395.49V378.84C1196.67 378.84 1167.49 358.92 1167.67 326.19H1179.5C1179.5 326.19 1177.13 343.54 1196.65 362.47V304.72H1208.48V343C1215.23 336.877 1219.36 328.389 1220.01 319.3H1231.45C1231.45 319.3 1233.77 338.38 1208.45 359.19V405.5C1210.85 407.953 1213.06 410.576 1215.08 413.35L1250.78 462.68C1263.89 480.79 1287.21 497.86 1313.56 497.86C1339.91 497.86 1363.23 480.79 1376.34 462.68L1412.04 413.35C1414.06 410.576 1416.27 407.953 1418.67 405.5V359.18C1393.38 338.37 1395.67 319.29 1395.67 319.29H1407.11C1407.76 328.379 1411.89 336.867 1418.64 342.99V304.72H1430.47V362.47C1449.99 343.54 1447.62 326.19 1447.62 326.19H1459.45C1459.65 358.92 1430.45 378.84 1430.45 378.84V395.53C1447.74 383.53 1470.9 376.53 1495.45 376.53H1605C1651.13 376.53 1690.52 401 1698.22 434.44L1733.73 588.53H2193C2190.22 573.333 2192.65 557.643 2199.9 544L2239.2 468.74C2244.92 457.787 2253.45 448.557 2263.92 442.001C2274.39 435.444 2286.42 431.799 2298.77 431.44C2299.31 431.419 2299.81 431.193 2300.19 430.807C2300.56 430.421 2300.77 429.906 2300.77 429.37V413.9C2274.55 392.81 2276.92 373.3 2276.92 373.3H2288.35C2288.69 377.996 2289.96 382.578 2292.09 386.775C2294.22 390.972 2297.17 394.7 2300.77 397.74V308H2312.59V365.73C2332.11 346.81 2329.74 329.46 2329.74 329.46H2341.57C2341.77 362.18 2312.57 382.09 2312.57 382.09V427.34C2312.57 428.43 2313 429.475 2313.77 430.246C2314.54 431.017 2315.59 431.45 2316.68 431.45H2408.55C2421.18 431.461 2433.57 428.035 2444.39 421.537C2455.22 415.04 2464.07 405.717 2470 394.57L2496.24 345.24C2502.16 334.115 2510.99 324.809 2521.79 318.316C2532.6 311.824 2544.96 308.389 2557.56 308.38C2559.18 308.385 2560.74 307.746 2561.9 306.602C2563.05 305.459 2563.7 303.904 2563.71 302.28V247.68C2536.32 225.68 2538.79 205.25 2538.79 205.25H2550.73C2551.08 210.159 2552.41 214.948 2554.65 219.335C2556.88 223.721 2559.97 227.616 2563.73 230.79V193.9C2537.32 172.15 2539.73 152.22 2539.73 152.22H2551.68C2552.35 161.718 2556.65 170.593 2563.69 177V137H2576V197.32C2596.43 177.55 2594 159.43 2594 159.43H2606.36C2606.56 193.62 2576.08 214.43 2576.08 214.43V298.8C2576.08 301.343 2577.09 303.783 2578.89 305.581C2580.69 307.38 2583.13 308.39 2585.67 308.39H2627.18V308.46H2696.78C2709.38 308.469 2721.74 311.904 2732.55 318.396C2743.35 324.889 2752.18 334.195 2758.1 345.32L2784.34 394.65C2790.27 405.782 2799.11 415.092 2809.92 421.585C2820.73 428.078 2833.1 431.509 2845.71 431.51H2937.58C2938.12 431.51 2938.65 431.404 2939.15 431.197C2939.65 430.991 2940.1 430.688 2940.49 430.306C2940.87 429.925 2941.17 429.471 2941.38 428.973C2941.58 428.474 2941.69 427.94 2941.69 427.4V382.14C2941.69 382.14 2912.51 362.23 2912.69 329.51H2924.52C2924.52 329.51 2922.15 346.86 2941.67 365.78V308.05H2953.49V397.81C2957.09 394.77 2960.04 391.042 2962.17 386.845C2964.3 382.648 2965.57 378.066 2965.91 373.37H2977.34C2977.34 373.37 2979.71 392.88 2953.49 413.97V429.46C2953.49 429.996 2953.7 430.511 2954.07 430.897C2954.45 431.283 2954.95 431.509 2955.49 431.53C2967.84 431.889 2979.87 435.534 2990.34 442.091C3000.81 448.647 3009.34 457.877 3015.06 468.83L3054.36 544.09C3061.58 557.721 3064 573.387 3061.22 588.56H3520.56L3556.07 434.47C3563.77 401.03 3603.16 376.56 3649.29 376.56H3758.74C3783.3 376.56 3806.46 383.56 3823.74 395.56V378.91C3823.74 378.91 3794.56 358.99 3794.74 326.26H3806.57C3806.57 326.26 3804.2 343.61 3823.72 362.54V304.79H3835.55V343.06C3842.3 336.937 3846.43 328.449 3847.08 319.36H3858.52C3858.52 319.36 3860.84 338.44 3835.52 359.25V405.57C3837.92 408.023 3840.13 410.646 3842.15 413.42L3877.85 462.75C3890.96 480.86 3914.28 497.93 3940.63 497.93C3966.98 497.93 3990.3 480.86 4003.41 462.75L4039.11 413.42C4041.13 410.646 4043.34 408.023 4045.74 405.57V359.25C4020.45 338.44 4022.74 319.36 4022.74 319.36H4034.18C4034.83 328.449 4038.96 336.937 4045.71 343.06V304.79H4057.54V362.54C4077.06 343.61 4074.69 326.26 4074.69 326.26H4086.52C4086.72 358.99 4057.52 378.91 4057.52 378.91V395.6C4074.81 383.6 4097.97 376.6 4122.52 376.6H4231.97C4278.1 376.6 4317.49 401.07 4325.19 434.51L4360.7 588.6H4820.04C4817.26 573.427 4819.68 557.761 4826.9 544.13L4866.2 468.87C4871.92 457.917 4880.45 448.687 4890.92 442.131C4901.39 435.574 4913.42 431.929 4925.77 431.57C4926.31 431.549 4926.81 431.323 4927.19 430.937C4927.56 430.551 4927.77 430.036 4927.77 429.5V414C4901.55 392.91 4903.92 373.4 4903.92 373.4H4915.35C4915.72 378.108 4917.03 382.694 4919.2 386.887C4921.37 391.08 4924.37 394.794 4928 397.81V308.05H4939.82V365.78C4959.34 346.86 4956.97 329.51 4956.97 329.51H4968.8C4969 362.23 4939.8 382.14 4939.8 382.14V427.39C4939.8 428.48 4940.23 429.525 4941 430.296C4941.77 431.067 4942.82 431.5 4943.91 431.5H5035.78C5048.39 431.499 5060.76 428.068 5071.57 421.575C5082.38 415.082 5091.22 405.772 5097.15 394.64L5123.39 345.31C5129.31 334.185 5138.14 324.879 5148.94 318.386C5159.75 311.894 5172.11 308.459 5184.71 308.45H5295.82C5298.36 308.45 5300.8 307.44 5302.6 305.641C5304.4 303.843 5305.41 301.403 5305.41 298.86V214.49C5305.41 214.49 5274.93 193.69 5275.13 159.49H5287.49C5287.49 159.49 5285.02 177.61 5305.41 197.38V137.07H5317.76V177.07C5324.81 170.674 5329.13 161.806 5329.81 152.31H5341.76C5341.76 152.31 5344.17 172.24 5317.76 193.99V230.86C5321.52 227.686 5324.61 223.791 5326.84 219.405C5329.08 215.018 5330.41 210.229 5330.76 205.32H5342.7C5342.7 205.32 5345.17 225.71 5317.78 247.75V302.35C5317.79 303.974 5318.44 305.529 5319.59 306.672C5320.75 307.816 5322.31 308.455 5323.93 308.45C5336.53 308.459 5348.89 311.894 5359.7 318.386C5370.5 324.879 5379.33 334.185 5385.25 345.31L5411.49 394.64C5417.42 405.772 5426.26 415.082 5437.07 421.575C5447.88 428.068 5460.25 431.499 5472.86 431.5H5564.73C5565.82 431.5 5566.87 431.067 5567.64 430.296C5568.41 429.525 5568.84 428.48 5568.84 427.39V382.14C5568.84 382.14 5539.66 362.23 5539.84 329.51H5551.67C5551.67 329.51 5549.3 346.86 5568.82 365.78V308.05H5580.64V397.81C5584.22 394.765 5587.16 391.035 5589.29 386.838C5591.41 382.641 5592.67 378.062 5593 373.37H5604.43C5604.43 373.37 5606.8 392.88 5580.58 413.97V429.46C5580.58 429.996 5580.79 430.511 5581.16 430.897C5581.54 431.283 5582.04 431.509 5582.58 431.53C5594.93 431.889 5606.96 435.534 5617.43 442.091C5627.9 448.647 5636.43 457.877 5642.15 468.83L5681.45 544.09C5688.67 557.721 5691.09 573.387 5688.31 588.56H6147.65L6183.16 434.47C6190.86 401.03 6230.25 376.56 6276.38 376.56H6385.9C6410.46 376.56 6433.62 383.56 6450.9 395.56V378.91C6450.9 378.91 6421.72 358.99 6421.9 326.26H6433.73C6433.73 326.26 6431.36 343.61 6450.88 362.54V304.79H6462.71V343.06C6469.46 336.937 6473.59 328.449 6474.24 319.36H6485.68C6485.68 319.36 6488 338.44 6462.68 359.25V405.57C6465.08 408.023 6467.29 410.646 6469.31 413.42L6505.01 462.75C6518.12 480.86 6541.44 497.93 6567.79 497.93C6594.14 497.93 6617.46 480.86 6630.57 462.75L6666.27 413.42C6668.29 410.646 6670.5 408.023 6672.9 405.57V359.25C6647.61 338.44 6649.9 319.36 6649.9 319.36H6661.34C6661.99 328.449 6666.12 336.937 6672.87 343.06V304.79H6684.7V362.54C6704.22 343.61 6701.85 326.26 6701.85 326.26H6713.68C6713.88 358.99 6684.68 378.91 6684.68 378.91V395.6C6701.97 383.6 6725.13 376.6 6749.68 376.6H6859.13C6905.26 376.6 6944.65 401.07 6952.35 434.51L6988 588.56H7447.34C7444.56 573.387 7446.98 557.721 7454.2 544.09L7493.5 468.83C7499.22 457.877 7507.75 448.647 7518.22 442.091C7528.69 435.534 7540.72 431.889 7553.07 431.53C7553.61 431.509 7554.11 431.283 7554.49 430.897C7554.86 430.511 7555.07 429.996 7555.07 429.46V414C7528.85 392.91 7531.22 373.4 7531.22 373.4H7542.65C7542.99 378.096 7544.26 382.678 7546.39 386.875C7548.52 391.072 7551.47 394.8 7555.07 397.84V308.05H7566.89V365.78C7586.41 346.86 7584.04 329.51 7584.04 329.51H7595.87C7596.07 362.23 7566.87 382.14 7566.87 382.14V427.39C7566.87 428.48 7567.3 429.525 7568.07 430.296C7568.84 431.067 7569.89 431.5 7570.98 431.5H7662.85C7675.46 431.499 7687.83 428.068 7698.64 421.575C7709.45 415.082 7718.29 405.772 7724.22 394.64L7750.46 345.31C7756.38 334.185 7765.21 324.879 7776.01 318.386C7786.82 311.894 7799.18 308.459 7811.78 308.45H7881.38V308.38H7922.89C7925.43 308.38 7927.87 307.37 7929.67 305.571C7931.47 303.773 7932.48 301.333 7932.48 298.79V214.42C7932.48 214.42 7902 193.62 7902.2 159.42H7914.56C7914.56 159.42 7912.09 177.54 7932.48 197.31V137H7944.83V177C7951.88 170.604 7956.2 161.736 7956.88 152.24H7968.83C7968.83 152.24 7971.24 172.17 7944.83 193.92V230.79C7948.59 227.616 7951.68 223.721 7953.91 219.335C7956.15 214.948 7957.48 210.159 7957.83 205.25H7969.77C7969.77 205.25 7972.24 225.64 7944.85 247.68V302.28C7944.86 303.904 7945.51 305.459 7946.66 306.602C7947.82 307.746 7949.38 308.385 7951 308.38C7963.6 308.389 7975.96 311.824 7986.77 318.316C7997.57 324.809 8006.4 334.115 8012.32 345.24L8038.56 394.57C8044.49 405.712 8053.34 415.03 8064.17 421.523C8074.99 428.017 8087.38 431.441 8100 431.43H8191.87C8192.96 431.43 8194.01 430.997 8194.78 430.226C8195.55 429.455 8195.98 428.41 8195.98 427.32V382.07C8195.98 382.07 8166.8 362.16 8166.98 329.44H8178.81C8178.81 329.44 8176.44 346.79 8195.96 365.71V308H8207.78V397.76C8211.38 394.72 8214.33 390.992 8216.46 386.795C8218.59 382.598 8219.86 378.016 8220.2 373.32H8231.63C8231.63 373.32 8234 392.83 8207.78 413.92V429.41C8207.78 429.946 8207.99 430.461 8208.36 430.847C8208.74 431.233 8209.24 431.459 8209.78 431.48C8222.13 431.839 8234.16 435.484 8244.63 442.041C8255.1 448.597 8263.63 457.827 8269.35 468.78L8308.65 544.04C8315.87 557.671 8318.29 573.337 8315.51 588.51H8774.85L8810.36 434.42C8818.06 400.98 8857.45 376.51 8903.58 376.51H9013C9037.56 376.51 9060.72 383.51 9078 395.51V378.84C9078 378.84 9048.82 358.92 9049 326.19H9060.83C9060.83 326.19 9058.46 343.54 9077.98 362.47V304.72H9089.81V343C9096.56 336.877 9100.69 328.389 9101.34 319.3H9112.78C9112.78 319.3 9115.1 338.38 9089.78 359.19V405.5C9092.18 407.953 9094.39 410.576 9096.41 413.35L9132.11 462.68C9145.22 480.79 9168.54 497.86 9194.89 497.86C9221.24 497.86 9244.56 480.79 9257.67 462.68L9293.37 413.35C9295.39 410.576 9297.6 407.953 9300 405.5V359.18C9274.71 338.37 9277 319.29 9277 319.29H9288.44C9289.12 328.401 9293.3 336.896 9300.1 343V304.72H9311.93V362.47C9331.45 343.54 9329.08 326.19 9329.08 326.19H9340.91C9341.11 358.92 9311.91 378.84 9311.91 378.84V395.53C9329.2 383.53 9352.36 376.53 9376.91 376.53H9486.36C9532.49 376.53 9571.88 401 9579.58 434.44L9615.09 588.53H10074.4C10071.7 573.357 10074.1 557.691 10081.3 544.06L10120.6 468.8C10126.3 457.847 10134.8 448.617 10145.3 442.061C10155.8 435.504 10167.8 431.859 10180.2 431.5C10180.7 431.479 10181.2 431.253 10181.6 430.867C10181.9 430.481 10182.2 429.966 10182.2 429.43V413.9C10155.9 392.81 10158.3 373.3 10158.3 373.3H10169.7C10170.1 377.996 10171.3 382.578 10173.5 386.775C10175.6 390.972 10178.6 394.7 10182.2 397.74V308H10194V365.73C10213.5 346.81 10211.1 329.46 10211.1 329.46H10223C10223.2 362.18 10194 382.09 10194 382.09V427.34C10194 428.43 10194.4 429.475 10195.2 430.246C10196 431.017 10197 431.45 10198.1 431.45H10290C10302.6 431.449 10315 428.018 10325.8 421.525C10336.6 415.032 10345.4 405.722 10351.4 394.59L10377.6 345.26C10383.5 334.135 10392.4 324.829 10403.2 318.336C10414 311.844 10426.3 308.409 10438.9 308.4C10440.6 308.405 10442.1 307.766 10443.3 306.622C10444.4 305.479 10445.1 303.924 10445.1 302.3V247.7C10417.7 225.7 10420.2 205.27 10420.2 205.27H10432.1C10432.5 210.179 10433.8 214.968 10436 219.355C10438.2 223.741 10441.3 227.636 10445.1 230.81V193.9C10418.7 172.15 10421.1 152.22 10421.1 152.22H10433C10433.7 161.725 10438 170.601 10445.1 177V137H10457.5V197.32C10477.8 177.55 10475.4 159.43 10475.4 159.43H10487.7C10487.9 193.62 10457.5 214.43 10457.5 214.43V298.8C10457.5 301.343 10458.5 303.783 10460.3 305.581C10462.1 307.38 10464.5 308.39 10467 308.39L10508.6 308.38Z" fill="url(#paint0_linear_10_25)"/>
<defs>
<linearGradient id="paint0_linear_10_25" x1="0" y1="608.28" x2="10508.6" y2="608.28" gradientUnits="userSpaceOnUse">
<stop stop-color="#42A69C"/>
<stop offset="0.02" stop-color="#40A69D"/>
<stop offset="0.25" stop-color="#25A9A2"/>
<stop offset="0.49" stop-color="#12ABA6"/>
<stop offset="0.74" stop-color="#07ACA8"/>
<stop offset="1" stop-color="#03ACA9"/>
</linearGradient>
</defs>
</svg>
