<svg width="10509" height="1080" viewBox="0 0 10509 1080" fill="none" xmlns="http://www.w3.org/2000/svg">
<g clip-path="url(#clip0_23_24)">
<path d="M10508.6 767.581V1080.39H0V767.581L0.38 694.281L0.64 645.281C6.19949 647.961 11.5074 651.133 16.5 654.761C32.85 666.471 54.6 690.631 99.29 690.631C143.98 690.631 168.47 672.111 181.62 654.761C195.71 636.181 214.19 625.031 233.81 625.031H234.1C242.37 625.029 250.519 623.047 257.866 619.251C265.213 615.455 271.544 609.955 276.33 603.211L285.27 590.621C300.99 568.481 331.61 554.311 365.37 553.331L362.93 550.901C362.476 550.357 362.242 549.662 362.274 548.954C362.306 548.246 362.602 547.575 363.103 547.074C363.604 546.573 364.275 546.277 364.983 546.245C365.691 546.213 366.386 546.447 366.93 546.901L369.33 549.311L371.65 546.991C372.113 546.525 372.715 546.224 373.366 546.134C374.016 546.044 374.678 546.169 375.25 546.491C375.661 546.747 376 547.103 376.235 547.527C376.469 547.95 376.591 548.427 376.59 548.911C376.585 549.661 376.287 550.378 375.76 550.911L373.37 553.291H515.7C550.65 553.291 582.7 539.121 599.17 516.431L634.87 467.111C651.29 444.421 683.39 430.211 718.34 430.211H779.57L777.51 428.211C777.056 427.667 776.822 426.972 776.854 426.264C776.886 425.556 777.182 424.885 777.683 424.384C778.184 423.883 778.855 423.587 779.563 423.555C780.271 423.523 780.966 423.757 781.51 424.211L783.92 426.621L786.34 424.211C786.872 423.683 787.591 423.387 788.34 423.387C789.089 423.387 789.808 423.683 790.34 424.211C790.867 424.744 791.165 425.462 791.17 426.211C791.168 426.961 790.87 427.68 790.34 428.211L788.3 430.211H827.78C873.91 430.211 913.31 454.681 921.01 488.111L968.51 694.241H1658.63L1706.13 488.111C1713.83 454.681 1753.23 430.211 1799.36 430.211H1839L1836.81 428.021C1836.51 427.768 1836.26 427.455 1836.08 427.102C1835.91 426.748 1835.81 426.362 1835.79 425.968C1835.77 425.574 1835.84 425.181 1835.98 424.813C1836.12 424.445 1836.34 424.111 1836.62 423.832C1836.9 423.553 1837.23 423.335 1837.6 423.192C1837.97 423.05 1838.36 422.985 1838.76 423.003C1839.15 423.021 1839.54 423.12 1839.89 423.296C1840.24 423.471 1840.56 423.718 1840.81 424.021L1843.21 426.431L1845.62 424.021C1846.16 423.567 1846.86 423.333 1847.57 423.365C1848.28 423.397 1848.95 423.693 1849.45 424.194C1849.95 424.695 1850.24 425.366 1850.28 426.074C1850.31 426.782 1850.07 427.477 1849.62 428.021L1847.44 430.211H1908.8C1943.8 430.211 1975.8 444.381 1992.27 467.071L2028 516.431C2044.42 539.121 2076.52 553.291 2111.47 553.291H2254.82L2251.39 549.861C2251.09 549.608 2250.84 549.295 2250.66 548.942C2250.49 548.588 2250.39 548.202 2250.37 547.808C2250.35 547.414 2250.42 547.021 2250.56 546.653C2250.7 546.285 2250.92 545.951 2251.2 545.672C2251.48 545.393 2251.81 545.175 2252.18 545.032C2252.55 544.89 2252.94 544.825 2253.34 544.843C2253.73 544.861 2254.12 544.96 2254.47 545.136C2254.82 545.311 2255.14 545.558 2255.39 545.861L2257.8 548.261L2260.2 545.861C2260.74 545.407 2261.44 545.173 2262.15 545.205C2262.86 545.237 2263.53 545.533 2264.03 546.034C2264.53 546.535 2264.82 547.206 2264.86 547.914C2264.89 548.622 2264.65 549.317 2264.2 549.861L2260.74 553.321C2294.91 554.031 2325.98 568.271 2341.86 590.631L2350.8 603.221C2355.59 609.961 2361.92 615.457 2369.27 619.25C2376.61 623.043 2384.76 625.021 2393.03 625.021H2393.32C2412.94 625.021 2431.42 636.171 2445.51 654.751C2451.24 662.321 2483.41 683.591 2536.78 689.961C2605.78 698.211 2701.22 690.621 2726.42 690.621C2771.1 690.621 2795.6 672.101 2808.75 654.751C2822.84 636.171 2841.32 625.021 2860.94 625.021H2861.23C2869.5 625.021 2877.65 623.043 2884.99 619.25C2892.34 615.457 2898.67 609.961 2903.46 603.221L2912.4 590.631C2928.28 568.271 2959.4 554.031 2993.52 553.321L2990.06 549.861C2989.61 549.317 2989.37 548.622 2989.4 547.914C2989.44 547.206 2989.73 546.535 2990.23 546.034C2990.73 545.533 2991.4 545.237 2992.11 545.205C2992.82 545.173 2993.52 545.407 2994.06 545.861L2996.46 548.261L2998.87 545.861C2999.12 545.558 2999.44 545.311 2999.79 545.136C3000.14 544.96 3000.53 544.861 3000.92 544.843C3001.32 544.825 3001.71 544.89 3002.08 545.032C3002.45 545.175 3002.78 545.393 3003.06 545.672C3003.34 545.951 3003.56 546.285 3003.7 546.653C3003.84 547.021 3003.91 547.414 3003.89 547.808C3003.87 548.202 3003.77 548.588 3003.6 548.942C3003.42 549.295 3003.17 549.608 3002.87 549.861L2999.44 553.291H3142.79C3177.74 553.291 3209.79 539.121 3226.26 516.431L3262 467.111C3278.43 444.421 3310.53 430.211 3345.48 430.211H3406.84L3404.65 428.021C3404.2 427.477 3403.96 426.782 3403.99 426.074C3404.03 425.366 3404.32 424.695 3404.82 424.194C3405.32 423.693 3405.99 423.397 3406.7 423.365C3407.41 423.333 3408.11 423.567 3408.65 424.021L3411.06 426.431L3413.46 424.021C3414 423.567 3414.7 423.333 3415.41 423.365C3416.12 423.397 3416.79 423.693 3417.29 424.194C3417.79 424.695 3418.08 425.366 3418.12 426.074C3418.15 426.782 3417.91 427.477 3417.46 428.021L3415.31 430.211H3454.92C3501.05 430.211 3540.45 454.681 3548.15 488.111L3595.65 694.241H4285.77L4333.27 488.111C4341 454.721 4380.37 430.211 4426.5 430.211H4466L4463.92 428.211C4463.39 427.68 4463.09 426.961 4463.09 426.211C4463.09 425.462 4463.39 424.744 4463.92 424.211C4464.45 423.683 4465.17 423.387 4465.92 423.387C4466.67 423.387 4467.39 423.683 4467.92 424.211L4470.32 426.621L4472.75 424.211C4473.29 423.757 4473.99 423.523 4474.7 423.555C4475.41 423.587 4476.08 423.883 4476.58 424.384C4477.08 424.885 4477.37 425.556 4477.41 426.264C4477.44 426.972 4477.2 427.667 4476.75 428.211L4474.71 430.211H4535.94C4570.94 430.211 4602.99 444.381 4619.41 467.071L4655.11 516.391C4671.53 539.081 4703.63 553.251 4738.58 553.251H4880.89L4878.5 550.871C4878.2 550.568 4877.97 550.2 4877.83 549.795C4877.69 549.39 4877.64 548.959 4877.69 548.533C4877.74 548.107 4877.88 547.698 4878.11 547.336C4878.34 546.974 4878.65 546.668 4879.01 546.441C4879.58 546.119 4880.24 545.994 4880.89 546.084C4881.54 546.174 4882.15 546.475 4882.61 546.941L4884.93 549.261L4887.33 546.851C4887.58 546.548 4887.9 546.301 4888.25 546.126C4888.6 545.95 4888.99 545.851 4889.38 545.833C4889.78 545.815 4890.17 545.88 4890.54 546.022C4890.91 546.165 4891.24 546.383 4891.52 546.662C4891.8 546.941 4892.02 547.275 4892.16 547.643C4892.3 548.011 4892.37 548.404 4892.35 548.798C4892.33 549.192 4892.23 549.578 4892.06 549.932C4891.88 550.285 4891.63 550.598 4891.33 550.851L4888.89 553.281C4922.65 554.281 4953.27 568.431 4968.99 590.571L4978 603.211C4982.79 609.951 4989.12 615.447 4996.47 619.24C5003.81 623.032 5011.96 625.011 5020.23 625.011H5020.52C5040.14 625.011 5058.62 636.161 5072.71 654.741C5085.86 672.091 5110.36 690.611 5155.04 690.611H5353.62C5398.3 690.611 5422.8 672.091 5435.95 654.741C5450.04 636.161 5468.52 625.011 5488.14 625.011H5488.43C5496.7 625.011 5504.85 623.032 5512.19 619.24C5519.54 615.447 5525.87 609.951 5530.66 603.211L5539.6 590.621C5555.32 568.481 5585.94 554.311 5619.7 553.331L5617.26 550.901C5616.81 550.357 5616.57 549.662 5616.6 548.954C5616.64 548.246 5616.93 547.575 5617.43 547.074C5617.93 546.573 5618.6 546.277 5619.31 546.245C5620.02 546.213 5620.72 546.447 5621.26 546.901L5623.66 549.311L5625.98 546.991C5626.44 546.525 5627.05 546.224 5627.7 546.134C5628.35 546.044 5629.01 546.169 5629.58 546.491C5629.99 546.747 5630.33 547.103 5630.56 547.527C5630.8 547.95 5630.92 548.427 5630.92 548.911C5630.92 549.661 5630.62 550.378 5630.09 550.911L5627.7 553.291H5770C5805 553.291 5837.05 539.121 5853.47 516.431L5889.17 467.111C5905.57 444.421 5937.67 430.211 5972.62 430.211H6033.85L6031.79 428.211C6031.34 427.667 6031.1 426.972 6031.13 426.264C6031.17 425.556 6031.46 424.885 6031.96 424.384C6032.46 423.883 6033.13 423.587 6033.84 423.555C6034.55 423.523 6035.25 423.757 6035.79 424.211L6038.2 426.621L6040.6 424.211C6041.13 423.683 6041.85 423.387 6042.6 423.387C6043.35 423.387 6044.07 423.683 6044.6 424.211C6045.13 424.744 6045.43 425.462 6045.43 426.211C6045.43 426.961 6045.13 427.68 6044.6 428.211L6042.58 430.211H6082.06C6128.19 430.211 6167.59 454.681 6175.29 488.111L6222.79 694.241H6912.91L6960.41 488.111C6968.11 454.681 7007.51 430.211 7053.64 430.211H7093.25L7091.06 428.021C7090.76 427.768 7090.51 427.455 7090.33 427.102C7090.16 426.748 7090.06 426.362 7090.04 425.968C7090.02 425.574 7090.09 425.181 7090.23 424.813C7090.37 424.445 7090.59 424.111 7090.87 423.832C7091.15 423.553 7091.48 423.335 7091.85 423.192C7092.22 423.05 7092.61 422.985 7093.01 423.003C7093.4 423.021 7093.79 423.12 7094.14 423.296C7094.49 423.471 7094.81 423.718 7095.06 424.021L7097.46 426.431L7099.87 424.021C7100.41 423.567 7101.11 423.333 7101.82 423.365C7102.53 423.397 7103.2 423.693 7103.7 424.194C7104.2 424.695 7104.49 425.366 7104.53 426.074C7104.56 426.782 7104.32 427.477 7103.87 428.021L7101.72 430.211H7163.08C7198.03 430.211 7230.13 444.381 7246.55 467.071L7282.25 516.391C7298.67 539.081 7330.77 553.251 7365.72 553.251H7509.07L7505.64 549.821C7505.34 549.568 7505.09 549.255 7504.91 548.902C7504.74 548.548 7504.64 548.162 7504.62 547.768C7504.6 547.374 7504.67 546.981 7504.81 546.613C7504.95 546.245 7505.17 545.911 7505.45 545.632C7505.73 545.353 7506.06 545.135 7506.43 544.992C7506.8 544.85 7507.19 544.785 7507.59 544.803C7507.98 544.821 7508.37 544.92 7508.72 545.096C7509.07 545.271 7509.39 545.518 7509.64 545.821L7512.05 548.221L7514.45 545.821C7514.99 545.367 7515.69 545.133 7516.4 545.165C7517.11 545.197 7517.78 545.493 7518.28 545.994C7518.78 546.495 7519.07 547.166 7519.11 547.874C7519.14 548.582 7518.9 549.277 7518.45 549.821L7514.99 553.281C7549.16 553.991 7580.23 568.231 7596.11 590.591L7605.05 603.181C7609.84 609.921 7616.17 615.417 7623.52 619.21C7630.86 623.002 7639.01 624.981 7647.28 624.981H7647.57C7667.19 624.981 7685.67 636.131 7699.76 654.711C7705.49 662.281 7737.66 683.551 7791.03 689.921C7860.03 698.171 7955.47 690.581 7980.67 690.581C8025.35 690.581 8049.85 672.061 8063 654.711C8077.09 636.131 8095.57 624.981 8115.19 624.981H8115.48C8123.75 624.981 8131.9 623.002 8139.24 619.21C8146.59 615.417 8152.92 609.921 8157.71 603.181L8166.65 590.591C8182.53 568.231 8213.6 553.991 8247.77 553.281L8244.31 549.821C8243.86 549.277 8243.62 548.582 8243.65 547.874C8243.69 547.166 8243.98 546.495 8244.48 545.994C8244.98 545.493 8245.66 545.197 8246.36 545.165C8247.07 545.133 8247.77 545.367 8248.31 545.821L8250.71 548.221L8253.12 545.821C8253.37 545.518 8253.69 545.271 8254.04 545.096C8254.39 544.92 8254.78 544.821 8255.17 544.803C8255.57 544.785 8255.96 544.85 8256.33 544.992C8256.7 545.135 8257.03 545.353 8257.31 545.632C8257.59 545.911 8257.81 546.245 8257.95 546.613C8258.09 546.981 8258.16 547.374 8258.14 547.768C8258.12 548.162 8258.02 548.548 8257.85 548.902C8257.67 549.255 8257.42 549.568 8257.12 549.821L8253.69 553.251H8397.04C8431.99 553.251 8464.04 539.081 8480.51 516.391L8516.21 467.071C8532.71 444.421 8564.81 430.211 8599.76 430.211H8661.12L8658.93 428.021C8658.48 427.477 8658.24 426.782 8658.27 426.074C8658.31 425.366 8658.6 424.695 8659.1 424.194C8659.6 423.693 8660.28 423.397 8660.98 423.365C8661.69 423.333 8662.39 423.567 8662.93 424.021L8665.34 426.431L8667.74 424.021C8668.28 423.567 8668.98 423.333 8669.69 423.365C8670.4 423.397 8671.07 423.693 8671.57 424.194C8672.07 424.695 8672.36 425.366 8672.4 426.074C8672.43 426.782 8672.19 427.477 8671.74 428.021L8669.59 430.211H8709.2C8755.33 430.211 8794.73 454.681 8802.43 488.111L8849.93 694.241H9540.05L9587.55 488.111C9595.25 454.681 9634.65 430.211 9680.78 430.211H9720.26L9718.2 428.211C9717.67 427.68 9717.37 426.961 9717.37 426.211C9717.38 425.462 9717.67 424.744 9718.2 424.211C9718.73 423.683 9719.45 423.387 9720.2 423.387C9720.95 423.387 9721.67 423.683 9722.2 424.211L9724.6 426.621L9727 424.211C9727.25 423.908 9727.57 423.661 9727.92 423.486C9728.27 423.31 9728.66 423.211 9729.05 423.193C9729.45 423.175 9729.84 423.24 9730.21 423.382C9730.58 423.525 9730.91 423.743 9731.19 424.022C9731.47 424.301 9731.69 424.635 9731.83 425.003C9731.97 425.371 9732.04 425.764 9732.02 426.158C9732 426.552 9731.9 426.938 9731.73 427.292C9731.55 427.645 9731.3 427.958 9731 428.211L9729 430.211H9790.23C9825.23 430.211 9857.28 444.381 9873.7 467.071L9909.4 516.391C9925.82 539.081 9957.92 553.251 9992.87 553.251H10135.2L10132.8 550.871C10132.5 550.568 10132.3 550.2 10132.1 549.795C10132 549.39 10131.9 548.959 10132 548.533C10132 548.107 10132.2 547.698 10132.4 547.336C10132.6 546.974 10132.9 546.668 10133.3 546.441C10133.9 546.119 10134.5 545.994 10135.2 546.084C10135.8 546.174 10136.4 546.475 10136.9 546.941L10139.2 549.261L10141.6 546.851C10142.2 546.397 10142.9 546.163 10143.6 546.195C10144.3 546.227 10144.9 546.523 10145.4 547.024C10145.9 547.525 10146.2 548.196 10146.3 548.904C10146.3 549.612 10146.1 550.307 10145.6 550.851L10143.2 553.281C10176.9 554.281 10207.6 568.431 10223.3 590.571L10232.2 603.161C10237 609.901 10243.3 615.397 10250.7 619.19C10258 622.983 10266.2 624.961 10274.5 624.961H10274.7C10294.4 624.961 10312.8 636.111 10326.9 654.691C10340.1 672.041 10364.6 690.561 10409.3 690.561C10453.9 690.561 10475.7 666.401 10492 654.691C10497 651.063 10502.4 647.891 10507.9 645.211L10508.2 694.211L10508.6 767.581Z" fill="#008F8C"/>
</g>
<defs>
<clipPath id="clip0_23_24">
<rect width="10508.6" height="1080" fill="white"/>
</clipPath>
</defs>
</svg>
