<svg id="Calque_4" data-name="Calque 4" xmlns="http://www.w3.org/2000/svg" viewBox="0 0 120.44 118.15"><defs><style>.cls-1{fill:#b1652e;}.cls-2{fill:#5c2f13;}.cls-3{fill:none;stroke:#5c2f13;stroke-miterlimit:10;}</style></defs><path class="cls-1" d="M38.53,116.52a14.56,14.56,0,0,1-7-1.83,26,26,0,0,1-4.82-3.46,18.7,18.7,0,0,1-4.39-6l-1.8-3.91a3.5,3.5,0,0,0-2.77-2C15,99,9.89,98,6.13,94.45a5.36,5.36,0,0,1-.58-.66c-9.78-13.26.7-21.88,1.49-22.5.42-.36,2-1.3,7.38-1.89a20.93,20.93,0,0,1,2.31-.11c1.06,0,2.1.06,3.19.12s2.24.14,3.42.14a24.76,24.76,0,0,0,11.78-3c8.7-4.4,22.06-20.4,26.45-25.66l1-1.21c2.11-2.47,6-10,7.18-22.7.81-8.69,5.89-12.57,8.84-14.11a10.61,10.61,0,0,1,4.94-1.24,9.46,9.46,0,0,1,3.19.54C93.14,4.49,98,12.62,100.37,17.26a3.32,3.32,0,0,0,3,1.83l.29,0c.82-.06,1.61-.1,2.37-.1,8.35,0,10.65,4.22,11.41,5.61l.06.12c.43.77,4,7.8-3,18.51C109.89,50.3,106,51.6,100,51.6c-1,0-2.09,0-3.25-.07s-2.37-.08-3.69-.09H93c-7.38,0-11,4.1-17.65,11.54-1.68,1.88-3.58,4-5.75,6.31C59.76,79.64,57.11,90.2,56.84,91.37a1.46,1.46,0,0,0,0,.22,61,61,0,0,1-4.34,15.64,15.16,15.16,0,0,1-13.94,9.29Z"/><path class="cls-2" d="M83.54,2.67a8.5,8.5,0,0,1,2.86.48c6.13,2.18,10.91,10.27,13.08,14.57a4.32,4.32,0,0,0,3.87,2.36h.37c.81-.07,1.58-.1,2.29-.1,8,0,9.91,4,10.6,5.21.82,1.49,3.18,8-3,17.49-4.5,6.94-8.09,7.92-13.6,7.92-2,0-4.27-.13-6.93-.15H93c-9.82,0-13.48,6.92-24.12,18.16-9.9,10.45-12.61,21-13,22.54,0,.11,0,.22-.06.33a59.8,59.8,0,0,1-4.26,15.37,14.24,14.24,0,0,1-13,8.68,13.46,13.46,0,0,1-6.56-1.7,25.5,25.5,0,0,1-4.64-3.34,17.66,17.66,0,0,1-4.15-5.71l-1.81-3.91a4.44,4.44,0,0,0-3.56-2.57C15,98,10.3,97,6.82,93.72a3.73,3.73,0,0,1-.46-.52C-3.27,80.14,7.68,72.06,7.68,72.06s1-1,6.85-1.66a20.33,20.33,0,0,1,2.19-.11c2.14,0,4.26.26,6.62.26a25.71,25.71,0,0,0,12.23-3.07c9.78-4.94,25.18-24.07,27.78-27.11s6.26-11,7.4-23.26C71.51,9,76.07,5.36,79.07,3.79a9.65,9.65,0,0,1,4.47-1.12m0-2A11.65,11.65,0,0,0,78.14,2C75,3.65,69.62,7.77,68.76,16.92c-1.16,12.43-4.91,19.77-6.94,22.15l-1,1.22c-11.69,14-20.48,22.55-26.13,25.41a23.54,23.54,0,0,1-11.33,2.85c-1.15,0-2.27-.07-3.36-.14s-2.16-.12-3.26-.12a22.86,22.86,0,0,0-2.41.12c-5.1.56-7.13,1.44-7.92,2.12C5.21,71.47-5.42,80.6,4.75,94.39a5.9,5.9,0,0,0,.7.79c3.77,3.56,8.69,4.74,12.15,5.1a2.45,2.45,0,0,1,2,1.42l1.8,3.91A19.65,19.65,0,0,0,26,112a27.39,27.39,0,0,0,5,3.6,15.64,15.64,0,0,0,7.53,2,16.17,16.17,0,0,0,14.86-9.9A62.16,62.16,0,0,0,57.8,91.71a.5.5,0,0,1,0-.12c.26-1.14,2.84-11.46,12.46-21.61,2.18-2.31,4.09-4.45,5.77-6.34,6.43-7.22,10-11.2,16.9-11.2h.14c1.31,0,2.51.05,3.67.09s2.25.06,3.28.06c6.19,0,10.46-1.4,15.28-8.84,7.26-11.19,3.49-18.71,3-19.53l-.07-.12C117.47,22.58,115,18,106,18c-.78,0-1.61,0-2.45.11h-.21a2.32,2.32,0,0,1-2.09-1.27C98.85,12,93.8,3.66,87.07,1.27a10.47,10.47,0,0,0-3.53-.6Z"/><circle class="cls-2" cx="59.35" cy="68.6" r="1.8"/><circle class="cls-2" cx="41.59" cy="90.21" r="1.8"/><circle class="cls-2" cx="17.77" cy="86.08" r="1.8"/><circle class="cls-2" cx="65.14" cy="50.01" r="1.8"/><circle class="cls-2" cx="79.94" cy="32.14" r="1.8"/><circle class="cls-2" cx="93.11" cy="34.19" r="1.8"/><path class="cls-3" d="M25.46,77.57C33.36,77,37.3,75.47,40.55,71"/><path class="cls-3" d="M88.81,9c-5.64-2.38-9.06-1-11.35,1.27"/><path class="cls-3" d="M27.2,98.4c1.26,9.76,11.54,14.19,17,4.75"/><path class="cls-3" d="M96.61,46.34c6.07.81,9-1.43,10.61-4.23"/></svg>