<svg width="350" height="350" viewBox="0 0 350 350" fill="none" xmlns="http://www.w3.org/2000/svg">
<path opacity="0.15" d="M175 350C271.65 350 350 271.65 350 175C350 78.3502 271.65 0 175 0C78.3502 0 0 78.3502 0 175C0 271.65 78.3502 350 175 350Z" fill="#D6ECEC"/>
<path opacity="0.15" d="M175 300C244.036 300 300 244.036 300 175C300 105.964 244.036 50 175 50C105.964 50 50 105.964 50 175C50 244.036 105.964 300 175 300Z" fill="#D6ECEC"/>
<path d="M175 235C208.137 235 235 208.137 235 175C235 141.863 208.137 115 175 115C141.863 115 115 141.863 115 175C115 208.137 141.863 235 175 235Z" fill="#D6ECEC"/>
</svg>
