<svg width="21017" height="1080" viewBox="0 0 21017 1080" fill="none" xmlns="http://www.w3.org/2000/svg">
<g clip-path="url(#clip0_23_24)">
<path d="M3694.47 413.26C3694.47 413.26 3721.14 393.03 3723.47 356.26H3750.15C3750.15 356.26 3755.67 401.79 3694.5 451V638.45C3694.5 638.904 3694.59 639.354 3694.77 639.772C3694.95 640.19 3695.21 640.568 3695.53 640.883C3695.86 641.199 3696.25 641.445 3696.67 641.608C3697.09 641.771 3697.55 641.846 3698 641.83C3700.99 641.765 3703.93 642.538 3706.5 644.06C3709.06 645.7 3711.32 647.774 3713.17 650.19L3718.42 656.57C3721.98 660.887 3726.98 663.759 3732.51 664.65C3738.03 665.541 3743.69 664.389 3748.42 661.41L3765.71 650.52C3772.58 646.192 3780.31 643.424 3788.37 642.41L3780.18 634.22C3778.88 632.924 3778.14 631.17 3778.12 629.335C3778.11 627.501 3778.81 625.732 3780.08 624.41C3781.35 623.192 3783.04 622.52 3784.8 622.539C3786.56 622.558 3788.24 623.265 3789.48 624.51L3795.18 630.21L3800.88 624.51C3801.5 623.886 3802.25 623.39 3803.06 623.052C3803.88 622.714 3804.75 622.54 3805.64 622.54C3806.52 622.54 3807.39 622.714 3808.21 623.052C3809.02 623.39 3809.77 623.886 3810.39 624.51C3811.01 625.134 3811.51 625.876 3811.85 626.692C3812.19 627.507 3812.36 628.382 3812.36 629.265C3812.36 630.148 3812.19 631.023 3811.85 631.838C3811.51 632.654 3811.01 633.396 3810.39 634.02L3802.4 642H3806.23C3813.63 641.999 3820.9 639.961 3827.22 636.109C3833.54 632.257 3838.68 626.739 3842.08 620.16L3860.38 584.68C3864.46 576.777 3870.64 570.149 3878.24 565.523C3885.83 560.896 3894.56 558.449 3903.45 558.45H3978C3986.88 558.458 3995.58 560.905 4003.17 565.524C4010.75 570.142 4016.92 576.755 4021 584.64L4039.3 620.12C4042.69 626.713 4047.84 632.243 4054.17 636.102C4060.5 639.962 4067.77 642.003 4075.19 642H4079L4071.06 634.06C4069.8 632.799 4069.09 631.088 4069.09 629.305C4069.09 627.522 4069.8 625.811 4071.06 624.55C4072.32 623.289 4074.03 622.58 4075.81 622.58C4077.6 622.58 4079.31 623.289 4080.57 624.55L4086.27 630.25L4091.97 624.55C4093.21 623.305 4094.89 622.597 4096.65 622.579C4098.41 622.56 4100.1 623.232 4101.37 624.45C4102.64 625.772 4103.34 627.541 4103.33 629.375C4103.31 631.21 4102.57 632.964 4101.27 634.26L4093.08 642.45C4101.14 643.464 4108.87 646.232 4115.74 650.56L4133.03 661.45C4137.76 664.429 4143.42 665.581 4148.94 664.69C4154.47 663.799 4159.47 660.927 4163.03 656.61L4168.28 650.23C4170.13 647.814 4172.39 645.74 4174.95 644.1C4177.52 642.578 4180.46 641.805 4183.45 641.87C4183.9 641.886 4184.36 641.811 4184.78 641.648C4185.2 641.485 4185.59 641.239 4185.92 640.923C4186.24 640.608 4186.5 640.23 4186.68 639.812C4186.86 639.394 4186.95 638.944 4186.95 638.49V451C4125.78 401.79 4131.3 356.26 4131.3 356.26H4158C4160.3 393.06 4187 413.26 4187 413.26V203.81H4214.6V338.53C4260.13 294.37 4254.6 253.9 4254.6 253.9H4282.19C4282.65 330.25 4214.59 376.7 4214.59 376.7V634.78C4214.59 635.723 4214.77 636.658 4215.13 637.529C4215.49 638.401 4216.02 639.193 4216.69 639.86C4217.36 640.527 4218.15 641.056 4219.02 641.416C4219.89 641.777 4220.83 641.961 4221.77 641.96H4271.71C4302.81 641.961 4333.42 649.711 4360.78 664.51L4386.54 678.43C4399.44 685.408 4413.87 689.064 4428.54 689.07C4431.78 689.07 4435.01 689.18 4438.22 689.4L4430.62 681.8C4429.36 680.539 4428.65 678.828 4428.65 677.045C4428.65 675.262 4429.36 673.551 4430.62 672.29C4431.88 671.029 4433.59 670.32 4435.38 670.32C4437.16 670.32 4438.87 671.029 4440.13 672.29L4445.83 677.99L4451.53 672.29C4452.77 671.045 4454.45 670.338 4456.21 670.319C4457.97 670.3 4459.66 670.972 4460.93 672.19C4462.2 673.512 4462.9 675.281 4462.89 677.115C4462.87 678.95 4462.13 680.704 4460.83 682L4451.83 691C4478.35 695.322 4503.15 706.923 4523.46 724.51L4531.1 731.13C4546.82 744.734 4566.9 752.221 4587.69 752.22H4603.23L4658.8 751.08C4671.93 750.81 4676.72 739.93 4684.65 726.37L4689.46 714.43C4693.11 705.281 4698.78 697.075 4706.05 690.421C4713.31 683.767 4721.99 678.838 4731.42 676C4742.57 672.739 4754.12 671.056 4765.73 671H4778.73C4781.19 670.997 4783.54 670.021 4785.27 668.285C4787.01 666.549 4787.99 664.195 4787.99 661.74V645.74C4740.52 607.55 4744.8 572.22 4744.8 572.22H4765.5C4767.29 600.78 4787.99 616.48 4787.99 616.48V453.89H4809.41V558.45C4844.74 524.18 4840.41 492.76 4840.41 492.76H4861.83C4862.18 552.01 4809.36 588.07 4809.36 588.07V663C4809.36 665.122 4810.2 667.157 4811.7 668.657C4813.2 670.157 4815.24 671 4817.36 671H4900.75L4888.54 658.79C4886.15 656.403 4884.81 653.166 4884.81 649.79C4884.81 646.414 4886.15 643.177 4888.54 640.79C4890.93 638.403 4894.16 637.062 4897.54 637.062C4900.92 637.062 4904.15 638.403 4906.54 640.79L4917.31 651.56L4928.08 640.79C4930.47 638.403 4933.7 637.062 4937.08 637.062C4940.46 637.062 4943.69 638.403 4946.08 640.79C4948.47 643.177 4949.81 646.414 4949.81 649.79C4949.81 653.166 4948.47 656.403 4946.08 658.79L4933.89 671C4955.89 671.07 4983.12 672.94 5006.12 669.34C5017.18 667.571 5027.25 661.909 5034.51 653.374C5041.76 644.839 5045.73 633.993 5045.7 622.79V441.16C4984.54 391.95 4990.05 346.42 4990.05 346.42H5016.73C5019.03 383.22 5045.73 403.42 5045.73 403.42V321.02C4986.73 272.47 4992.15 227.96 4992.15 227.96H5018.83C5020.74 258.49 5039.41 277.61 5045.73 283.24V194H5073.33V328.72C5118.86 284.56 5113.33 244.09 5113.33 244.09H5140.93C5141.39 320.44 5073.32 366.89 5073.32 366.89V553.41C5073.32 557.353 5074.37 561.224 5076.37 564.627C5078.36 568.029 5081.22 570.842 5084.65 572.775C5088.09 574.708 5091.98 575.693 5095.92 575.629C5099.86 575.565 5103.72 574.454 5107.09 572.41C5125.44 561.508 5146.4 555.794 5167.74 555.88H5340.86C5362.2 555.794 5383.16 561.508 5401.51 572.41C5404.88 574.454 5408.74 575.565 5412.68 575.629C5416.62 575.693 5420.51 574.708 5423.95 572.775C5427.38 570.842 5430.24 568.029 5432.23 564.627C5434.23 561.224 5435.28 557.353 5435.28 553.41V366.89C5435.28 366.89 5367.21 320.44 5367.67 244.09H5395.27C5395.27 244.09 5389.75 284.56 5435.27 328.72V194H5462.87V283.27C5469.19 277.64 5487.87 258.52 5489.77 227.99H5516.45C5516.45 227.99 5521.83 272.5 5462.87 321.05V403.45C5462.87 403.45 5489.54 383.22 5491.87 346.45H5518.55C5518.55 346.45 5524.06 391.98 5462.9 441.19V622.81C5462.87 634.013 5466.84 644.86 5474.09 653.394C5481.35 661.929 5491.42 667.591 5502.48 669.36C5525.48 672.96 5552.67 671.09 5574.71 671.02L5562.49 658.8C5561.31 657.618 5560.37 656.215 5559.73 654.671C5559.09 653.127 5558.76 651.471 5558.76 649.8C5558.76 648.129 5559.09 646.473 5559.73 644.929C5560.37 643.385 5561.31 641.982 5562.49 640.8C5563.67 639.618 5565.07 638.681 5566.62 638.041C5568.16 637.401 5569.82 637.072 5571.49 637.072C5573.16 637.072 5574.82 637.401 5576.36 638.041C5577.91 638.681 5579.31 639.618 5580.49 640.8L5591.26 651.57L5602 640.83C5604.39 638.443 5607.62 637.102 5611 637.102C5612.67 637.102 5614.33 637.431 5615.87 638.071C5617.41 638.711 5618.82 639.648 5620 640.83C5621.18 642.012 5622.12 643.415 5622.76 644.959C5623.4 646.503 5623.73 648.159 5623.73 649.83C5623.73 651.501 5623.4 653.157 5622.76 654.701C5622.12 656.245 5621.18 657.648 5620 658.83L5607.7 671H5691.09C5693.21 671 5695.25 670.157 5696.75 668.657C5698.25 667.157 5699.09 665.122 5699.09 663V588.1C5699.09 588.1 5646.27 552.04 5646.62 492.79H5668.04C5668.04 492.79 5663.76 524.21 5699.09 558.48V453.89H5720.51V616.45C5720.51 616.45 5741.21 600.75 5743 572.19H5763.7C5763.7 572.19 5767.98 607.52 5720.51 645.71V661.71C5720.51 664.165 5721.49 666.519 5723.23 668.255C5724.96 669.991 5727.31 670.967 5729.77 670.97H5742.77C5754.38 671.026 5765.93 672.709 5777.08 675.97C5786.5 678.809 5795.16 683.734 5802.42 690.381C5809.68 697.027 5815.35 705.223 5819 714.36L5823.81 726.3C5831.74 739.86 5836.53 750.74 5849.66 751.01L5905.23 752.15H5920.77C5941.56 752.151 5961.64 744.664 5977.36 731.06L5985 724.44C6005.34 706.868 6030.16 695.291 6056.69 691L6047.69 682C6046.39 680.704 6045.65 678.95 6045.63 677.115C6045.62 675.281 6046.32 673.512 6047.59 672.19C6048.86 670.972 6050.55 670.3 6052.31 670.319C6054.07 670.338 6055.75 671.045 6056.99 672.29L6062.69 677.99L6068.39 672.29C6069.01 671.666 6069.76 671.17 6070.57 670.832C6071.39 670.494 6072.26 670.32 6073.15 670.32C6074.03 670.32 6074.9 670.494 6075.72 670.832C6076.53 671.17 6077.28 671.666 6077.9 672.29C6078.52 672.914 6079.02 673.656 6079.36 674.472C6079.7 675.287 6079.87 676.162 6079.87 677.045C6079.87 677.928 6079.7 678.803 6079.36 679.618C6079.02 680.434 6078.52 681.176 6077.9 681.8L6070.3 689.4C6073.51 689.18 6076.74 689.07 6079.98 689.07C6094.65 689.064 6109.08 685.408 6121.98 678.43L6147.74 664.51C6175.12 649.712 6205.76 641.975 6236.89 642H6286.83C6287.77 642.001 6288.71 641.817 6289.58 641.456C6290.45 641.096 6291.24 640.567 6291.91 639.9C6292.58 639.233 6293.11 638.441 6293.47 637.569C6293.83 636.698 6294.01 635.763 6294.01 634.82V376.7C6294.01 376.7 6225.95 330.25 6226.41 253.9H6254C6254 253.9 6248.48 294.37 6294 338.53V203.81H6321.6V413.26C6321.6 413.26 6348.27 393.03 6350.6 356.26H6377.28C6377.28 356.26 6382.8 401.79 6321.63 451V638.45C6321.63 638.904 6321.72 639.354 6321.9 639.772C6322.08 640.19 6322.34 640.568 6322.66 640.883C6322.99 641.199 6323.38 641.445 6323.8 641.608C6324.22 641.771 6324.68 641.846 6325.13 641.83C6328.12 641.765 6331.06 642.538 6333.63 644.06C6336.19 645.7 6338.45 647.774 6340.3 650.19L6345.55 656.57C6349.11 660.887 6354.11 663.759 6359.64 664.65C6365.16 665.541 6370.82 664.389 6375.55 661.41L6392.84 650.52C6399.71 646.192 6407.44 643.424 6415.5 642.41L6407.31 634.22C6406.01 632.924 6405.27 631.17 6405.25 629.335C6405.24 627.501 6405.94 625.732 6407.21 624.41C6408.48 623.192 6410.17 622.52 6411.93 622.539C6413.69 622.558 6415.37 623.265 6416.61 624.51L6422.31 630.21L6428.01 624.51C6428.63 623.886 6429.38 623.39 6430.19 623.052C6431.01 622.714 6431.88 622.54 6432.77 622.54C6433.65 622.54 6434.52 622.714 6435.34 623.052C6436.15 623.39 6436.9 623.886 6437.52 624.51C6438.14 625.134 6438.64 625.876 6438.98 626.692C6439.32 627.507 6439.49 628.382 6439.49 629.265C6439.49 630.148 6439.32 631.023 6438.98 631.838C6438.64 632.654 6438.14 633.396 6437.52 634.02L6429.58 641.96H6433.41C6440.81 641.959 6448.08 639.921 6454.4 636.069C6460.72 632.217 6465.86 626.699 6469.26 620.12L6487.56 584.64C6491.64 576.737 6497.82 570.109 6505.42 565.483C6513.01 560.856 6521.74 558.409 6530.63 558.41H6605.15C6614.04 558.409 6622.77 560.856 6630.36 565.483C6637.96 570.109 6644.14 576.737 6648.22 584.64L6666.52 620.12C6669.91 626.701 6675.04 632.223 6681.36 636.082C6687.67 639.941 6694.93 641.988 6702.33 642H6706.16L6698.22 634.06C6696.96 632.799 6696.25 631.088 6696.25 629.305C6696.25 627.522 6696.96 625.811 6698.22 624.55C6699.48 623.289 6701.19 622.58 6702.98 622.58C6704.76 622.58 6706.47 623.289 6707.73 624.55L6713.43 630.25L6719.13 624.55C6720.37 623.305 6722.05 622.597 6723.81 622.579C6725.57 622.56 6727.26 623.232 6728.53 624.45C6729.8 625.772 6730.5 627.541 6730.49 629.375C6730.47 631.21 6729.73 632.964 6728.43 634.26L6720.24 642.45C6728.3 643.464 6736.03 646.232 6742.9 650.56L6760.19 661.45C6764.92 664.429 6770.58 665.581 6776.1 664.69C6781.62 663.799 6786.63 660.927 6790.19 656.61L6795.44 650.23C6797.29 647.814 6799.55 645.74 6802.11 644.1C6804.68 642.578 6807.62 641.805 6810.61 641.87C6811.06 641.886 6811.52 641.811 6811.94 641.648C6812.36 641.485 6812.75 641.239 6813.08 640.923C6813.4 640.608 6813.66 640.23 6813.84 639.812C6814.02 639.394 6814.11 638.944 6814.11 638.49V451C6752.94 401.79 6758.46 356.26 6758.46 356.26H6785.14C6787.44 393.06 6814.14 413.26 6814.14 413.26V203.81H6841.74V338.53C6887.27 294.37 6881.74 253.9 6881.74 253.9H6909.33C6909.79 330.25 6841.73 376.7 6841.73 376.7V634.78C6841.73 635.723 6841.91 636.658 6842.27 637.529C6842.63 638.401 6843.16 639.193 6843.83 639.86C6844.5 640.527 6845.29 641.056 6846.16 641.416C6847.03 641.777 6847.97 641.961 6848.91 641.96H6898.85C6929.95 641.961 6960.56 649.711 6987.92 664.51L7013.68 678.43C7026.58 685.408 7041.01 689.064 7055.68 689.07C7058.92 689.07 7062.15 689.18 7065.36 689.4L7057.76 681.8C7056.5 680.539 7055.79 678.828 7055.79 677.045C7055.79 675.262 7056.5 673.551 7057.76 672.29C7059.02 671.029 7060.73 670.32 7062.52 670.32C7064.3 670.32 7066.01 671.029 7067.27 672.29L7072.97 677.99L7078.67 672.29C7079.91 671.045 7081.59 670.338 7083.35 670.319C7085.11 670.3 7086.8 670.972 7088.07 672.19C7089.34 673.512 7090.04 675.281 7090.03 677.115C7090.01 678.95 7089.27 680.704 7087.97 682L7078.97 691C7105.49 695.322 7130.29 706.923 7150.6 724.51L7158.24 731.13C7173.96 744.734 7194.04 752.221 7214.83 752.22H7230.37L7286 751C7299.13 750.73 7303.92 739.85 7311.85 726.29L7316.66 714.35C7320.32 705.223 7325.98 697.036 7333.24 690.397C7340.49 683.758 7349.15 678.837 7358.56 676C7369.71 672.739 7381.26 671.056 7392.87 671H7405.87C7408.33 670.997 7410.68 670.021 7412.42 668.285C7414.15 666.549 7415.13 664.195 7415.13 661.74V645.74C7367.66 607.55 7371.94 572.22 7371.94 572.22H7392.64C7394.43 600.78 7415.13 616.48 7415.13 616.48V453.89H7436.55V558.45C7471.88 524.18 7467.6 492.76 7467.6 492.76H7489C7489.35 552.01 7436.53 588.07 7436.53 588.07V663C7436.53 665.122 7437.37 667.157 7438.87 668.657C7440.37 670.157 7442.41 671 7444.53 671H7528L7515.79 658.79C7513.4 656.403 7512.06 653.166 7512.06 649.79C7512.06 646.414 7513.4 643.177 7515.79 640.79C7518.18 638.403 7521.41 637.062 7524.79 637.062C7528.17 637.062 7531.4 638.403 7533.79 640.79L7544.56 651.56L7555.33 640.79C7557.72 638.403 7560.95 637.062 7564.33 637.062C7566 637.062 7567.66 637.391 7569.2 638.031C7570.74 638.671 7572.15 639.608 7573.33 640.79C7574.51 641.972 7575.45 643.375 7576.09 644.919C7576.73 646.463 7577.06 648.119 7577.06 649.79C7577.06 651.461 7576.73 653.117 7576.09 654.661C7575.45 656.205 7574.51 657.608 7573.33 658.79L7561 671C7583 671.07 7610.23 672.94 7633.23 669.34C7644.29 667.571 7654.36 661.909 7661.62 653.374C7668.87 644.839 7672.84 633.993 7672.81 622.79V441.16C7611.65 391.95 7617.16 346.42 7617.16 346.42H7643.84C7646.14 383.22 7672.84 403.42 7672.84 403.42V321.02C7613.84 272.47 7619.26 227.96 7619.26 227.96H7645.94C7647.85 258.49 7666.52 277.61 7672.84 283.24V194H7700.44V328.72C7745.97 284.56 7740.44 244.09 7740.44 244.09H7768.04C7768.5 320.44 7700.43 366.89 7700.43 366.89V553.41C7700.43 557.353 7701.48 561.224 7703.48 564.627C7705.47 568.029 7708.33 570.842 7711.76 572.775C7715.2 574.708 7719.09 575.693 7723.03 575.629C7726.97 575.565 7730.83 574.454 7734.2 572.41C7752.55 561.508 7773.51 555.794 7794.85 555.88H7968C7989.34 555.794 8010.3 561.508 8028.65 572.41C8032.02 574.454 8035.88 575.565 8039.82 575.629C8043.76 575.693 8047.65 574.708 8051.09 572.775C8054.52 570.842 8057.38 568.029 8059.37 564.627C8061.37 561.224 8062.42 557.353 8062.42 553.41V366.89C8062.42 366.89 7994.35 320.44 7994.81 244.09H8022.41C8022.41 244.09 8016.89 284.56 8062.41 328.72V194H8090V283.27C8096.32 277.64 8115 258.52 8116.9 227.99H8143.58C8143.58 227.99 8149 272.5 8090 321.05V403.45C8090 403.45 8116.67 383.22 8119 346.45H8145.68C8145.68 346.45 8151.19 391.98 8090.03 441.19V622.81C8090 634.013 8093.97 644.86 8101.22 653.394C8108.48 661.929 8118.55 667.591 8129.61 669.36C8152.61 672.96 8179.8 671.09 8201.84 671.02L8189.62 658.8C8188.44 657.618 8187.5 656.215 8186.86 654.671C8186.22 653.127 8185.89 651.471 8185.89 649.8C8185.89 648.129 8186.22 646.473 8186.86 644.929C8187.5 643.385 8188.44 641.982 8189.62 640.8C8190.8 639.618 8192.2 638.681 8193.75 638.041C8195.29 637.401 8196.95 637.072 8198.62 637.072C8200.29 637.072 8201.95 637.401 8203.49 638.041C8205.04 638.681 8206.44 639.618 8207.62 640.8L8218.39 651.57L8229.16 640.8C8231.55 638.413 8234.78 637.072 8238.16 637.072C8239.83 637.072 8241.49 637.401 8243.03 638.041C8244.58 638.681 8245.98 639.618 8247.16 640.8C8248.34 641.982 8249.28 643.385 8249.92 644.929C8250.56 646.473 8250.89 648.129 8250.89 649.8C8250.89 651.471 8250.56 653.127 8249.92 654.671C8249.28 656.215 8248.34 657.618 8247.16 658.8L8234.84 671H8318.23C8320.35 671 8322.39 670.157 8323.89 668.657C8325.39 667.157 8326.23 665.122 8326.23 663V588.1C8326.23 588.1 8273.41 552.04 8273.76 492.79H8295.18C8295.18 492.79 8290.9 524.21 8326.23 558.48V453.89H8347.65V616.45C8347.65 616.45 8368.35 600.75 8370.14 572.19H8390.84C8390.84 572.19 8395.12 607.52 8347.65 645.71V661.71C8347.65 662.936 8347.89 664.15 8348.36 665.282C8348.83 666.414 8349.52 667.442 8350.39 668.306C8351.26 669.17 8352.29 669.853 8353.42 670.316C8354.56 670.778 8355.77 671.011 8357 671H8370C8381.61 671.056 8393.16 672.739 8404.31 676C8413.73 678.839 8422.39 683.764 8429.65 690.411C8436.91 697.057 8442.58 705.253 8446.23 714.39L8451.04 726.33C8458.97 739.89 8463.76 750.77 8476.89 751.04L8532.46 752.18H8548C8568.79 752.181 8588.87 744.694 8604.59 731.09L8612.23 724.47C8632.54 706.902 8657.33 695.315 8683.83 691L8674.83 682C8673.53 680.704 8672.79 678.95 8672.77 677.115C8672.76 675.281 8673.46 673.512 8674.73 672.19C8676 670.972 8677.69 670.3 8679.45 670.319C8681.21 670.338 8682.89 671.045 8684.13 672.29L8689.83 677.99L8695.53 672.29C8696.15 671.666 8696.9 671.17 8697.71 670.832C8698.53 670.494 8699.4 670.32 8700.29 670.32C8701.17 670.32 8702.04 670.494 8702.86 670.832C8703.67 671.17 8704.42 671.666 8705.04 672.29C8705.66 672.914 8706.16 673.656 8706.5 674.472C8706.84 675.287 8707.01 676.162 8707.01 677.045C8707.01 677.928 8706.84 678.803 8706.5 679.618C8706.16 680.434 8705.66 681.176 8705.04 681.8L8697.44 689.4C8700.65 689.18 8703.88 689.07 8707.12 689.07C8721.79 689.064 8736.22 685.408 8749.12 678.43L8775 664.51C8802.34 649.736 8832.92 642 8864 642H8914C8914.94 642.001 8915.88 641.817 8916.75 641.456C8917.62 641.096 8918.41 640.567 8919.08 639.9C8919.75 639.233 8920.28 638.441 8920.64 637.569C8921 636.698 8921.18 635.763 8921.18 634.82V376.7C8921.18 376.7 8853.12 330.25 8853.58 253.9H8881.17C8881.17 253.9 8875.65 294.37 8921.17 338.53V203.81H8948.77V413.26C8948.77 413.26 8975.44 393.03 8977.77 356.26H9004.45C9004.45 356.26 9009.97 401.79 8948.8 451V638.45C8948.8 638.904 8948.89 639.354 8949.07 639.772C8949.25 640.19 8949.51 640.568 8949.83 640.883C8950.16 641.199 8950.55 641.445 8950.97 641.608C8951.39 641.771 8951.85 641.846 8952.3 641.83C8955.29 641.765 8958.23 642.538 8960.8 644.06C8963.36 645.7 8965.62 647.774 8967.47 650.19L8972.72 656.57C8976.28 660.887 8981.28 663.759 8986.81 664.65C8992.33 665.541 8997.99 664.389 9002.72 661.41L9020.01 650.52C9026.88 646.192 9034.61 643.424 9042.67 642.41L9034.48 634.22C9033.18 632.924 9032.44 631.17 9032.42 629.335C9032.41 627.501 9033.11 625.732 9034.38 624.41C9035.65 623.192 9037.34 622.52 9039.1 622.539C9040.86 622.558 9042.54 623.265 9043.78 624.51L9049.48 630.21L9055.18 624.51C9055.8 623.886 9056.55 623.39 9057.36 623.052C9058.18 622.714 9059.05 622.54 9059.93 622.54C9060.82 622.54 9061.69 622.714 9062.51 623.052C9063.32 623.39 9064.07 623.886 9064.69 624.51C9065.31 625.134 9065.81 625.876 9066.15 626.692C9066.49 627.507 9066.66 628.382 9066.66 629.265C9066.66 630.148 9066.49 631.023 9066.15 631.838C9065.81 632.654 9065.31 633.396 9064.69 634.02L9056.75 641.96H9060.58C9067.98 641.959 9075.25 639.921 9081.57 636.069C9087.89 632.217 9093.03 626.699 9096.43 620.12L9114.73 584.64C9118.81 576.737 9124.99 570.109 9132.58 565.483C9140.18 560.856 9148.91 558.409 9157.8 558.41H9232.32C9241.21 558.409 9249.94 560.856 9257.54 565.483C9265.13 570.109 9271.31 576.737 9275.39 584.64L9293.69 620.12C9297.08 626.696 9302.2 632.215 9308.51 636.074C9314.82 639.933 9322.07 641.983 9329.47 642H9333.3L9325.36 634.06C9324.1 632.799 9323.39 631.088 9323.39 629.305C9323.39 627.522 9324.1 625.811 9325.36 624.55C9326.62 623.289 9328.33 622.58 9330.12 622.58C9331.9 622.58 9333.61 623.289 9334.87 624.55L9340.57 630.25L9346.27 624.55C9347.51 623.305 9349.19 622.597 9350.95 622.579C9352.71 622.56 9354.4 623.232 9355.67 624.45C9356.94 625.772 9357.64 627.541 9357.63 629.375C9357.61 631.21 9356.87 632.964 9355.57 634.26L9347.38 642.45C9355.44 643.464 9363.17 646.232 9370.04 650.56L9387.33 661.45C9392.06 664.429 9397.72 665.581 9403.24 664.69C9408.77 663.799 9413.77 660.927 9417.33 656.61L9422.58 650.23C9424.43 647.814 9426.69 645.74 9429.25 644.1C9431.82 642.578 9434.76 641.805 9437.75 641.87C9438.2 641.886 9438.66 641.811 9439.08 641.648C9439.5 641.485 9439.89 641.239 9440.22 640.923C9440.54 640.608 9440.8 640.23 9440.98 639.812C9441.16 639.394 9441.25 638.944 9441.25 638.49V451C9380.08 401.79 9385.6 356.26 9385.6 356.26H9412.28C9414.58 393.06 9441.28 413.26 9441.28 413.26V203.81H9468.88V338.53C9514.41 294.37 9508.88 253.9 9508.88 253.9H9536.47C9536.93 330.25 9468.87 376.7 9468.87 376.7V634.78C9468.86 635.722 9469.04 636.657 9469.4 637.53C9469.75 638.403 9470.28 639.198 9470.94 639.868C9471.6 640.539 9472.39 641.072 9473.26 641.438C9474.13 641.804 9475.06 641.995 9476 642H9526C9557.08 642 9587.66 649.736 9615 664.51L9640.76 678.43C9653.66 685.408 9668.09 689.064 9682.76 689.07C9686 689.07 9689.23 689.18 9692.44 689.4L9684.84 681.8C9684.22 681.176 9683.72 680.434 9683.38 679.618C9683.04 678.803 9682.87 677.928 9682.87 677.045C9682.87 676.162 9683.04 675.287 9683.38 674.472C9683.72 673.656 9684.22 672.914 9684.84 672.29C9685.46 671.666 9686.21 671.17 9687.02 670.832C9687.84 670.494 9688.71 670.32 9689.59 670.32C9690.48 670.32 9691.35 670.494 9692.17 670.832C9692.98 671.17 9693.73 671.666 9694.35 672.29L9700.05 677.99L9705.75 672.29C9706.99 671.045 9708.67 670.338 9710.43 670.319C9712.19 670.3 9713.88 670.972 9715.15 672.19C9716.42 673.512 9717.13 675.281 9717.11 677.115C9717.09 678.95 9716.35 680.704 9715.05 682L9706.05 691C9732.57 695.322 9757.37 706.923 9777.68 724.51L9785.32 731.13C9801.06 744.739 9821.19 752.213 9842 752.18H9857.54L9913.11 751.04C9926.24 750.77 9931.03 739.89 9938.96 726.33L9943.77 714.39C9947.43 705.252 9953.09 697.055 9960.35 690.409C9967.61 683.763 9976.28 678.838 9985.7 676C9996.85 672.739 10008.4 671.056 10020 671H10033C10035.5 670.997 10037.8 670.021 10039.6 668.285C10041.3 666.549 10042.3 664.195 10042.3 661.74V645.74C9994.8 607.55 9999.08 572.22 9999.08 572.22H10019.8C10021.6 600.78 10042.3 616.48 10042.3 616.48V453.89H10063.7V558.45C10099 524.18 10094.7 492.76 10094.7 492.76H10116.2C10116.5 552.01 10063.7 588.07 10063.7 588.07V663C10063.7 665.122 10064.5 667.157 10066 668.657C10067.5 670.157 10069.6 671 10071.7 671H10155.1L10142.9 658.79C10140.5 656.403 10139.1 653.166 10139.1 649.79C10139.1 646.414 10140.5 643.177 10142.9 640.79C10145.3 638.403 10148.5 637.062 10151.9 637.062C10155.2 637.062 10158.5 638.403 10160.9 640.79L10171.6 651.56L10182.4 640.79C10184.8 638.403 10188 637.062 10191.4 637.062C10193.1 637.062 10194.7 637.391 10196.3 638.031C10197.8 638.671 10199.2 639.608 10200.4 640.79C10201.6 641.972 10202.5 643.375 10203.2 644.919C10203.8 646.463 10204.1 648.119 10204.1 649.79C10204.1 651.461 10203.8 653.117 10203.2 654.661C10202.5 656.205 10201.6 657.608 10200.4 658.79L10188.2 671C10210.2 671.07 10237.4 672.94 10260.4 669.34C10271.5 667.571 10281.5 661.909 10288.8 653.374C10296 644.839 10300 633.993 10300 622.79V441.16C10238.8 391.95 10244.3 346.42 10244.3 346.42H10271C10273.3 383.22 10300 403.42 10300 403.42V321.02C10241 272.5 10246.4 228 10246.4 228H10273.1C10275 258.53 10293.7 277.65 10300 283.28V194H10327.6V328.72C10373.1 284.56 10367.6 244.09 10367.6 244.09H10395.2C10395.6 320.44 10327.6 366.89 10327.6 366.89V553.41C10327.6 557.353 10328.6 561.224 10330.6 564.627C10332.6 568.029 10335.5 570.842 10338.9 572.775C10342.3 574.708 10346.2 575.693 10350.2 575.629C10354.1 575.565 10358 574.454 10361.3 572.41C10379.7 561.508 10400.6 555.794 10422 555.88H10508.5V1080.22H0V555.89H86.56C107.901 555.804 128.864 561.518 147.21 572.42C150.582 574.464 154.436 575.575 158.378 575.639C162.321 575.703 166.209 574.718 169.645 572.785C173.082 570.852 175.942 568.04 177.934 564.637C179.926 561.234 180.977 557.363 180.98 553.42V366.89C180.98 366.89 112.91 320.44 113.37 244.09H141C141 244.09 135.48 284.56 181 328.72V194H208.6V283.27C214.92 277.64 233.6 258.52 235.5 227.99H262.18C262.18 227.99 267.56 272.5 208.6 321.05V403.45C208.6 403.45 235.27 383.22 237.6 346.45H264.28C264.28 346.45 269.79 391.98 208.63 441.19V622.81C208.597 634.013 212.566 644.86 219.823 653.394C227.08 661.929 237.147 667.591 248.21 669.36C271.21 672.96 298.4 671.09 320.44 671.02L308.17 658.8C306.988 657.618 306.051 656.215 305.411 654.671C304.771 653.127 304.442 651.471 304.442 649.8C304.442 648.129 304.771 646.473 305.411 644.929C306.051 643.385 306.988 641.982 308.17 640.8C309.352 639.618 310.755 638.681 312.299 638.041C313.843 637.401 315.499 637.072 317.17 637.072C318.841 637.072 320.497 637.401 322.041 638.041C323.585 638.681 324.988 639.618 326.17 640.8L336.9 651.6L347.67 640.83C350.057 638.443 353.294 637.102 356.67 637.102C360.046 637.102 363.283 638.443 365.67 640.83C368.057 643.217 369.398 646.454 369.398 649.83C369.398 653.206 368.057 656.443 365.67 658.83L353.42 671H436.81C438.932 671 440.967 670.157 442.467 668.657C443.967 667.157 444.81 665.122 444.81 663V588.1C444.81 588.1 392 552 392.38 492.76H413.8C413.8 492.76 409.52 524.18 444.85 558.45V453.89H466.27V616.45C466.27 616.45 486.97 600.75 488.76 572.19H509.46C509.46 572.19 513.74 607.52 466.27 645.71V661.71C466.273 664.165 467.249 666.519 468.985 668.255C470.721 669.991 473.075 670.967 475.53 670.97H488.53C500.144 671.026 511.693 672.709 522.84 675.97C532.262 678.809 540.924 683.734 548.181 690.381C555.439 697.027 561.105 705.223 564.76 714.36L569.57 726.3C577.5 739.86 582.29 750.74 595.42 751.01L651 752.18H666.54C687.325 752.181 707.415 744.694 723.13 731.09L730.77 724.47C751.09 706.895 775.892 695.308 802.41 691L793.41 682C792.111 680.704 791.373 678.95 791.354 677.115C791.335 675.281 792.038 673.512 793.31 672.19C794.578 670.972 796.273 670.3 798.03 670.319C799.788 670.338 801.469 671.045 802.71 672.29L808.41 677.99L814.11 672.29C815.371 671.029 817.082 670.32 818.865 670.32C820.648 670.32 822.359 671.029 823.62 672.29C824.881 673.551 825.59 675.262 825.59 677.045C825.59 678.828 824.881 680.539 823.62 681.8L816.02 689.4C819.233 689.18 822.46 689.07 825.7 689.07C840.366 689.064 854.8 685.408 867.7 678.43L893.46 664.51C920.843 649.712 951.484 641.975 982.61 642H1032.55C1033.49 642.001 1034.43 641.817 1035.3 641.456C1036.17 641.096 1036.96 640.567 1037.63 639.9C1038.3 639.233 1038.83 638.441 1039.19 637.569C1039.55 636.698 1039.73 635.763 1039.73 634.82V376.7C1039.73 376.7 971.67 330.25 972.13 253.9H999.72C999.72 253.9 994.2 294.37 1039.72 338.53V203.81H1067.32V413.26C1067.32 413.26 1093.99 393.03 1096.32 356.26H1123C1123 356.26 1128.52 401.79 1067.35 451V638.45C1067.35 638.904 1067.44 639.354 1067.62 639.772C1067.8 640.19 1068.06 640.568 1068.38 640.883C1068.71 641.199 1069.1 641.445 1069.52 641.608C1069.94 641.771 1070.4 641.846 1070.85 641.83C1073.84 641.765 1076.78 642.538 1079.35 644.06C1081.91 645.7 1084.17 647.774 1086.02 650.19L1091.27 656.57C1094.83 660.887 1099.83 663.759 1105.36 664.65C1110.88 665.541 1116.54 664.389 1121.27 661.41L1138.56 650.52C1145.43 646.192 1153.16 643.424 1161.22 642.41L1153.03 634.22C1151.73 632.924 1150.99 631.17 1150.97 629.335C1150.96 627.501 1151.66 625.732 1152.93 624.41C1154.2 623.192 1155.89 622.52 1157.65 622.539C1159.41 622.558 1161.09 623.265 1162.33 624.51L1168.03 630.21L1173.73 624.51C1174.35 623.886 1175.1 623.39 1175.91 623.052C1176.73 622.714 1177.6 622.54 1178.48 622.54C1179.37 622.54 1180.24 622.714 1181.06 623.052C1181.87 623.39 1182.62 623.886 1183.24 624.51C1183.86 625.134 1184.36 625.876 1184.7 626.692C1185.04 627.507 1185.21 628.382 1185.21 629.265C1185.21 630.148 1185.04 631.023 1184.7 631.838C1184.36 632.654 1183.86 633.396 1183.24 634.02L1175.3 641.96H1179.13C1186.53 641.959 1193.8 639.921 1200.12 636.069C1206.44 632.217 1211.58 626.699 1214.98 620.12L1233.28 584.64C1237.36 576.737 1243.54 570.109 1251.14 565.483C1258.73 560.856 1267.46 558.409 1276.35 558.41H1350.87C1359.76 558.409 1368.49 560.856 1376.08 565.483C1383.68 570.109 1389.86 576.737 1393.94 584.64L1412.24 620.12C1415.63 626.701 1420.76 632.223 1427.08 636.082C1433.39 639.941 1440.65 641.988 1448.05 642H1451.88L1443.94 634.06C1442.68 632.799 1441.97 631.088 1441.97 629.305C1441.97 627.522 1442.68 625.811 1443.94 624.55C1445.2 623.289 1446.91 622.58 1448.69 622.58C1450.48 622.58 1452.19 623.289 1453.45 624.55L1459.15 630.25L1464.85 624.55C1466.09 623.305 1467.77 622.597 1469.53 622.579C1471.29 622.56 1472.98 623.232 1474.25 624.45C1475.52 625.772 1476.22 627.541 1476.21 629.375C1476.19 631.21 1475.45 632.964 1474.15 634.26L1465.96 642.45C1474.02 643.464 1481.75 646.232 1488.62 650.56L1505.91 661.45C1510.64 664.429 1516.3 665.581 1521.82 664.69C1527.35 663.799 1532.35 660.927 1535.91 656.61L1541.16 650.23C1543.01 647.814 1545.27 645.74 1547.83 644.1C1550.4 642.578 1553.34 641.805 1556.33 641.87C1556.78 641.886 1557.24 641.811 1557.66 641.648C1558.08 641.485 1558.47 641.239 1558.8 640.923C1559.12 640.608 1559.38 640.23 1559.56 639.812C1559.74 639.394 1559.83 638.944 1559.83 638.49V451C1498.66 401.79 1504.18 356.26 1504.18 356.26H1530.86C1533.16 393.06 1559.86 413.26 1559.86 413.26V203.81H1587.46V338.53C1632.99 294.37 1627.46 253.9 1627.46 253.9H1655C1655.46 330.25 1587.4 376.7 1587.4 376.7V634.78C1587.4 635.723 1587.58 636.658 1587.94 637.529C1588.3 638.401 1588.83 639.193 1589.5 639.86C1590.17 640.527 1590.96 641.056 1591.83 641.416C1592.7 641.777 1593.64 641.961 1594.58 641.96H1644.52C1675.62 641.961 1706.23 649.711 1733.59 664.51L1759.35 678.43C1772.25 685.408 1786.68 689.064 1801.35 689.07C1804.59 689.07 1807.82 689.18 1811.03 689.4L1803.43 681.8C1802.81 681.176 1802.31 680.434 1801.97 679.618C1801.63 678.803 1801.46 677.928 1801.46 677.045C1801.46 676.162 1801.63 675.287 1801.97 674.472C1802.31 673.656 1802.81 672.914 1803.43 672.29C1804.05 671.666 1804.8 671.17 1805.61 670.832C1806.43 670.494 1807.3 670.32 1808.19 670.32C1809.07 670.32 1809.94 670.494 1810.76 670.832C1811.57 671.17 1812.32 671.666 1812.94 672.29L1818.64 677.99L1824.34 672.29C1825.58 671.045 1827.26 670.338 1829.02 670.319C1830.78 670.3 1832.47 670.972 1833.74 672.19C1835.01 673.512 1835.71 675.281 1835.7 677.115C1835.68 678.95 1834.94 680.704 1833.64 682L1824.64 691C1851.16 695.322 1875.96 706.923 1896.27 724.51L1903.91 731.13C1919.63 744.734 1939.71 752.221 1960.5 752.22H1976.04L2031.7 751C2044.83 750.73 2049.62 739.85 2057.55 726.29L2062.36 714.35C2066.02 705.22 2071.69 697.032 2078.95 690.393C2086.2 683.754 2094.86 678.835 2104.28 676C2115.43 672.739 2126.98 671.056 2138.59 671H2151.59C2154.05 670.997 2156.4 670.021 2158.13 668.285C2159.87 666.549 2160.85 664.195 2160.85 661.74V645.74C2113.38 607.55 2117.66 572.22 2117.66 572.22H2138.36C2140.15 600.78 2160.85 616.48 2160.85 616.48V453.89H2182.27V558.45C2217.6 524.18 2213.32 492.76 2213.32 492.76H2234.74C2235.09 552.01 2182.27 588.07 2182.27 588.07V663C2182.27 665.122 2183.11 667.157 2184.61 668.657C2186.11 670.157 2188.15 671 2190.27 671H2273.66L2261.45 658.79C2259.06 656.403 2257.72 653.166 2257.72 649.79C2257.72 646.414 2259.06 643.177 2261.45 640.79C2263.84 638.403 2267.07 637.062 2270.45 637.062C2273.83 637.062 2277.06 638.403 2279.45 640.79L2290.22 651.56L2301 640.83C2303.39 638.443 2306.62 637.102 2310 637.102C2313.38 637.102 2316.61 638.443 2319 640.83C2321.39 643.217 2322.73 646.454 2322.73 649.83C2322.73 653.206 2321.39 656.443 2319 658.83L2306.75 671C2328.75 671.07 2355.98 672.94 2378.98 669.34C2390.04 667.571 2400.11 661.909 2407.37 653.374C2414.62 644.839 2418.59 633.993 2418.56 622.79V441.16C2357.4 391.95 2362.91 346.42 2362.91 346.42H2389.59C2391.89 383.22 2418.59 403.42 2418.59 403.42V321.02C2359.6 272.5 2365 228 2365 228H2391.68C2393.59 258.53 2412.26 277.65 2418.58 283.28V194H2446.18V328.72C2491.71 284.56 2486.18 244.09 2486.18 244.09H2513.78C2514.24 320.44 2446.17 366.89 2446.17 366.89V553.41C2446.17 557.353 2447.22 561.224 2449.22 564.627C2451.21 568.029 2454.07 570.842 2457.5 572.775C2460.94 574.708 2464.83 575.693 2468.77 575.629C2472.71 575.565 2476.57 574.454 2479.94 572.41C2498.29 561.508 2519.25 555.794 2540.59 555.88H2713.7C2735.04 555.794 2756 561.508 2774.35 572.41C2777.72 574.454 2781.58 575.565 2785.52 575.629C2789.46 575.693 2793.35 574.708 2796.79 572.775C2800.22 570.842 2803.08 568.029 2805.07 564.627C2807.07 561.224 2808.12 557.353 2808.12 553.41V366.89C2808.12 366.89 2740.05 320.44 2740.51 244.09H2768.11C2768.11 244.09 2762.59 284.56 2808.11 328.72V194H2835.71V283.27C2842.03 277.64 2860.71 258.52 2862.61 227.99H2889.29C2889.29 227.99 2894.67 272.5 2835.71 321.05V403.45C2835.71 403.45 2862.38 383.22 2864.71 346.45H2891.39C2891.39 346.45 2896.9 391.98 2835.74 441.19V622.81C2835.71 634.013 2839.68 644.86 2846.93 653.394C2854.19 661.929 2864.26 667.591 2875.32 669.36C2898.32 672.96 2925.51 671.09 2947.55 671.02L2935.33 658.8C2932.94 656.413 2931.6 653.176 2931.6 649.8C2931.6 646.424 2932.94 643.187 2935.33 640.8C2937.72 638.413 2940.95 637.072 2944.33 637.072C2947.71 637.072 2950.94 638.413 2953.33 640.8L2964 651.6L2974.77 640.83C2977.16 638.443 2980.39 637.102 2983.77 637.102C2987.15 637.102 2990.38 638.443 2992.77 640.83C2995.16 643.217 2996.5 646.454 2996.5 649.83C2996.5 653.206 2995.16 656.443 2992.77 658.83L2980.56 671H3064C3066.12 671 3068.16 670.157 3069.66 668.657C3071.16 667.157 3072 665.122 3072 663V588.1C3072 588.1 3019.18 552.04 3019.53 492.79H3040.95C3040.95 492.79 3036.67 524.21 3071.95 558.48V453.89H3093.37V616.45C3093.37 616.45 3114.07 600.75 3115.86 572.19H3136.56C3136.56 572.19 3140.84 607.52 3093.37 645.71V661.71C3093.37 664.165 3094.35 666.519 3096.09 668.255C3097.82 669.991 3100.17 670.967 3102.63 670.97H3115.63C3127.24 671.026 3138.79 672.709 3149.94 675.97C3159.36 678.809 3168.02 683.734 3175.28 690.381C3182.54 697.027 3188.21 705.223 3191.86 714.36L3196.67 726.3C3204.6 739.86 3209.39 750.74 3222.52 751.01L3278.09 752.15H3293.63C3314.42 752.151 3334.5 744.664 3350.22 731.06L3357.86 724.44C3378.2 706.868 3403.02 695.291 3429.55 691L3420.55 682C3419.25 680.704 3418.51 678.95 3418.49 677.115C3418.48 675.281 3419.18 673.512 3420.45 672.19C3421.72 670.972 3423.41 670.3 3425.17 670.319C3426.93 670.338 3428.61 671.045 3429.85 672.29L3435.55 677.99L3441.25 672.29C3441.87 671.666 3442.62 671.17 3443.43 670.832C3444.25 670.494 3445.12 670.32 3446 670.32C3446.89 670.32 3447.76 670.494 3448.58 670.832C3449.39 671.17 3450.14 671.666 3450.76 672.29C3451.38 672.914 3451.88 673.656 3452.22 674.472C3452.56 675.287 3452.73 676.162 3452.73 677.045C3452.73 677.928 3452.56 678.803 3452.22 679.618C3451.88 680.434 3451.38 681.176 3450.76 681.8L3443.16 689.4C3446.37 689.18 3449.6 689.07 3452.84 689.07C3467.51 689.064 3481.94 685.408 3494.84 678.43L3520.6 664.51C3547.98 649.712 3578.62 641.975 3609.75 642H3659.69C3660.63 642.001 3661.57 641.817 3662.44 641.456C3663.31 641.096 3664.1 640.567 3664.77 639.9C3665.44 639.233 3665.97 638.441 3666.33 637.569C3666.69 636.698 3666.87 635.763 3666.87 634.82V376.7C3666.87 376.7 3598.81 330.25 3599.27 253.9H3626.86C3626.86 253.9 3621.34 294.37 3666.86 338.53V203.81H3694.46L3694.47 413.26Z" fill="#015959"/>
<path d="M14202.5 413.26C14202.5 413.26 14229.1 393.03 14231.5 356.26H14258.1C14258.1 356.26 14263.7 401.79 14202.5 451V638.45C14202.5 638.904 14202.6 639.354 14202.8 639.772C14202.9 640.19 14203.2 640.568 14203.5 640.883C14203.9 641.199 14204.2 641.445 14204.7 641.608C14205.1 641.771 14205.5 641.846 14206 641.83C14209 641.765 14211.9 642.538 14214.5 644.06C14217.1 645.7 14219.3 647.774 14221.2 650.19L14226.4 656.57C14230 660.887 14235 663.759 14240.5 664.65C14246 665.541 14251.7 664.389 14256.4 661.41L14273.7 650.52C14280.6 646.192 14288.3 643.424 14296.4 642.41L14288.2 634.22C14286.9 632.924 14286.1 631.17 14286.1 629.335C14286.1 627.501 14286.8 625.732 14288.1 624.41C14289.3 623.192 14291 622.52 14292.8 622.539C14294.6 622.558 14296.2 623.265 14297.5 624.51L14303.2 630.21L14308.9 624.51C14309.5 623.886 14310.2 623.39 14311.1 623.052C14311.9 622.714 14312.8 622.54 14313.6 622.54C14314.5 622.54 14315.4 622.714 14316.2 623.052C14317 623.39 14317.8 623.886 14318.4 624.51C14319 625.134 14319.5 625.876 14319.8 626.692C14320.2 627.507 14320.4 628.382 14320.4 629.265C14320.4 630.148 14320.2 631.023 14319.8 631.838C14319.5 632.654 14319 633.396 14318.4 634.02L14310.4 642H14314.2C14321.6 641.999 14328.9 639.961 14335.2 636.109C14341.5 632.257 14346.7 626.739 14350.1 620.16L14368.4 584.68C14372.5 576.777 14378.6 570.149 14386.2 565.523C14393.8 560.896 14402.6 558.449 14411.4 558.45H14486C14494.9 558.458 14503.6 560.905 14511.2 565.524C14518.8 570.142 14524.9 576.755 14529 584.64L14547.3 620.12C14550.7 626.713 14555.8 632.243 14562.2 636.102C14568.5 639.962 14575.8 642.003 14583.2 642H14587L14579.1 634.06C14577.8 632.799 14577.1 631.088 14577.1 629.305C14577.1 627.522 14577.8 625.811 14579.1 624.55C14580.3 623.289 14582 622.58 14583.8 622.58C14585.6 622.58 14587.3 623.289 14588.6 624.55L14594.3 630.25L14600 624.55C14601.2 623.305 14602.9 622.597 14604.6 622.579C14606.4 622.56 14608.1 623.232 14609.4 624.45C14610.6 625.772 14611.3 627.541 14611.3 629.375C14611.3 631.21 14610.6 632.964 14609.3 634.26L14601.1 642.45C14609.1 643.464 14616.9 646.232 14623.7 650.56L14641 661.45C14645.8 664.429 14651.4 665.581 14656.9 664.69C14662.5 663.799 14667.5 660.927 14671 656.61L14676.3 650.23C14678.1 647.814 14680.4 645.74 14683 644.1C14685.5 642.578 14688.5 641.805 14691.5 641.87C14691.9 641.886 14692.4 641.811 14692.8 641.648C14693.2 641.485 14693.6 641.239 14693.9 640.923C14694.2 640.608 14694.5 640.23 14694.7 639.812C14694.9 639.394 14695 638.944 14695 638.49V451C14633.8 401.79 14639.3 356.26 14639.3 356.26H14666C14668.3 393.06 14695 413.26 14695 413.26V203.81H14722.6V338.53C14768.1 294.37 14762.6 253.9 14762.6 253.9H14790.2C14790.6 330.25 14722.6 376.7 14722.6 376.7V634.78C14722.6 635.723 14722.8 636.658 14723.1 637.529C14723.5 638.401 14724 639.193 14724.7 639.86C14725.4 640.527 14726.1 641.056 14727 641.416C14727.9 641.777 14728.8 641.961 14729.8 641.96H14779.7C14810.8 641.961 14841.4 649.711 14868.8 664.51L14894.5 678.43C14907.4 685.408 14921.9 689.064 14936.5 689.07C14939.8 689.07 14943 689.18 14946.2 689.4L14938.6 681.8C14937.4 680.539 14936.7 678.828 14936.7 677.045C14936.7 675.262 14937.4 673.551 14938.6 672.29C14939.9 671.029 14941.6 670.32 14943.4 670.32C14945.2 670.32 14946.9 671.029 14948.1 672.29L14953.8 677.99L14959.5 672.29C14960.8 671.045 14962.5 670.338 14964.2 670.319C14966 670.3 14967.7 670.972 14968.9 672.19C14970.2 673.512 14970.9 675.281 14970.9 677.115C14970.9 678.95 14970.1 680.704 14968.8 682L14959.8 691C14986.3 695.322 15011.1 706.923 15031.5 724.51L15039.1 731.13C15054.8 744.734 15074.9 752.221 15095.7 752.22H15111.2L15166.8 751.08C15179.9 750.81 15184.7 739.93 15192.6 726.37L15197.5 714.43C15201.1 705.281 15206.8 697.075 15214 690.421C15221.3 683.767 15230 678.838 15239.4 676C15250.6 672.739 15262.1 671.056 15273.7 671H15286.7C15289.2 670.997 15291.5 670.021 15293.3 668.285C15295 666.549 15296 664.195 15296 661.74V645.74C15248.5 607.55 15252.8 572.22 15252.8 572.22H15273.5C15275.3 600.78 15296 616.48 15296 616.48V453.89H15317.4V558.45C15352.7 524.18 15348.4 492.76 15348.4 492.76H15369.8C15370.2 552.01 15317.4 588.07 15317.4 588.07V663C15317.4 665.122 15318.2 667.157 15319.7 668.657C15321.2 670.157 15323.2 671 15325.4 671H15408.8L15396.5 658.79C15394.2 656.403 15392.8 653.166 15392.8 649.79C15392.8 646.414 15394.2 643.177 15396.5 640.79C15398.9 638.403 15402.2 637.062 15405.5 637.062C15408.9 637.062 15412.2 638.403 15414.5 640.79L15425.3 651.56L15436.1 640.79C15438.5 638.403 15441.7 637.062 15445.1 637.062C15448.5 637.062 15451.7 638.403 15454.1 640.79C15456.5 643.177 15457.8 646.414 15457.8 649.79C15457.8 653.166 15456.5 656.403 15454.1 658.79L15441.9 671C15463.9 671.07 15491.1 672.94 15514.1 669.34C15525.2 667.571 15535.2 661.909 15542.5 653.374C15549.8 644.839 15553.7 633.993 15553.7 622.79V441.16C15492.5 391.95 15498 346.42 15498 346.42H15524.7C15527 383.22 15553.7 403.42 15553.7 403.42V321.02C15494.7 272.47 15500.1 227.96 15500.1 227.96H15526.8C15528.7 258.49 15547.4 277.61 15553.7 283.24V194H15581.3V328.72C15626.9 284.56 15621.3 244.09 15621.3 244.09H15648.9C15649.4 320.44 15581.3 366.89 15581.3 366.89V553.41C15581.3 557.353 15582.4 561.224 15584.4 564.627C15586.4 568.029 15589.2 570.842 15592.7 572.775C15596.1 574.708 15600 575.693 15603.9 575.629C15607.9 575.565 15611.7 574.454 15615.1 572.41C15633.4 561.508 15654.4 555.794 15675.7 555.88H15848.9C15870.2 555.794 15891.2 561.508 15909.5 572.41C15912.9 574.454 15916.7 575.565 15920.7 575.629C15924.6 575.693 15928.5 574.708 15931.9 572.775C15935.4 570.842 15938.2 568.029 15940.2 564.627C15942.2 561.224 15943.3 557.353 15943.3 553.41V366.89C15943.3 366.89 15875.2 320.44 15875.7 244.09H15903.3C15903.3 244.09 15897.8 284.56 15943.3 328.72V194H15970.9V283.27C15977.2 277.64 15995.9 258.52 15997.8 227.99H16024.5C16024.5 227.99 16029.8 272.5 15970.9 321.05V403.45C15970.9 403.45 15997.5 383.22 15999.9 346.45H16026.5C16026.5 346.45 16032.1 391.98 15970.9 441.19V622.81C15970.9 634.013 15974.8 644.86 15982.1 653.394C15989.4 661.929 15999.4 667.591 16010.5 669.36C16033.5 672.96 16060.7 671.09 16082.7 671.02L16070.5 658.8C16069.3 657.618 16068.4 656.215 16067.7 654.671C16067.1 653.127 16066.8 651.471 16066.8 649.8C16066.8 648.129 16067.1 646.473 16067.7 644.929C16068.4 643.385 16069.3 641.982 16070.5 640.8C16071.7 639.618 16073.1 638.681 16074.6 638.041C16076.2 637.401 16077.8 637.072 16079.5 637.072C16081.2 637.072 16082.8 637.401 16084.4 638.041C16085.9 638.681 16087.3 639.618 16088.5 640.8L16099.3 651.57L16110 640.83C16112.4 638.443 16115.6 637.102 16119 637.102C16120.7 637.102 16122.3 637.431 16123.9 638.071C16125.4 638.711 16126.8 639.648 16128 640.83C16129.2 642.012 16130.1 643.415 16130.8 644.959C16131.4 646.503 16131.7 648.159 16131.7 649.83C16131.7 651.501 16131.4 653.157 16130.8 654.701C16130.1 656.245 16129.2 657.648 16128 658.83L16115.7 671H16199.1C16201.2 671 16203.2 670.157 16204.7 668.657C16206.2 667.157 16207.1 665.122 16207.1 663V588.1C16207.1 588.1 16154.3 552.04 16154.6 492.79H16176C16176 492.79 16171.8 524.21 16207.1 558.48V453.89H16228.5V616.45C16228.5 616.45 16249.2 600.75 16251 572.19H16271.7C16271.7 572.19 16276 607.52 16228.5 645.71V661.71C16228.5 664.165 16229.5 666.519 16231.2 668.255C16233 669.991 16235.3 670.967 16237.8 670.97H16250.8C16262.4 671.026 16273.9 672.709 16285.1 675.97C16294.5 678.809 16303.2 683.734 16310.4 690.381C16317.7 697.027 16323.3 705.223 16327 714.36L16331.8 726.3C16339.7 739.86 16344.5 750.74 16357.7 751.01L16413.2 752.15H16428.8C16449.6 752.151 16469.6 744.664 16485.4 731.06L16493 724.44C16513.3 706.868 16538.2 695.291 16564.7 691L16555.7 682C16554.4 680.704 16553.7 678.95 16553.6 677.115C16553.6 675.281 16554.3 673.512 16555.6 672.19C16556.9 670.972 16558.6 670.3 16560.3 670.319C16562.1 670.338 16563.7 671.045 16565 672.29L16570.7 677.99L16576.4 672.29C16577 671.666 16577.8 671.17 16578.6 670.832C16579.4 670.494 16580.3 670.32 16581.1 670.32C16582 670.32 16582.9 670.494 16583.7 670.832C16584.5 671.17 16585.3 671.666 16585.9 672.29C16586.5 672.914 16587 673.656 16587.4 674.472C16587.7 675.287 16587.9 676.162 16587.9 677.045C16587.9 677.928 16587.7 678.803 16587.4 679.618C16587 680.434 16586.5 681.176 16585.9 681.8L16578.3 689.4C16581.5 689.18 16584.7 689.07 16588 689.07C16602.6 689.064 16617.1 685.408 16630 678.43L16655.7 664.51C16683.1 649.712 16713.8 641.975 16744.9 642H16794.8C16795.8 642.001 16796.7 641.817 16797.6 641.456C16798.5 641.096 16799.2 640.567 16799.9 639.9C16800.6 639.233 16801.1 638.441 16801.5 637.569C16801.8 636.698 16802 635.763 16802 634.82V376.7C16802 376.7 16734 330.25 16734.4 253.9H16762C16762 253.9 16756.5 294.37 16802 338.53V203.81H16829.6V413.26C16829.6 413.26 16856.3 393.03 16858.6 356.26H16885.3C16885.3 356.26 16890.8 401.79 16829.6 451V638.45C16829.6 638.904 16829.7 639.354 16829.9 639.772C16830.1 640.19 16830.3 640.568 16830.7 640.883C16831 641.199 16831.4 641.445 16831.8 641.608C16832.2 641.771 16832.7 641.846 16833.1 641.83C16836.1 641.765 16839.1 642.538 16841.6 644.06C16844.2 645.7 16846.4 647.774 16848.3 650.19L16853.5 656.57C16857.1 660.887 16862.1 663.759 16867.6 664.65C16873.2 665.541 16878.8 664.389 16883.5 661.41L16900.8 650.52C16907.7 646.192 16915.4 643.424 16923.5 642.41L16915.3 634.22C16914 632.924 16913.3 631.17 16913.3 629.335C16913.2 627.501 16913.9 625.732 16915.2 624.41C16916.5 623.192 16918.2 622.52 16919.9 622.539C16921.7 622.558 16923.4 623.265 16924.6 624.51L16930.3 630.21L16936 624.51C16936.6 623.886 16937.4 623.39 16938.2 623.052C16939 622.714 16939.9 622.54 16940.8 622.54C16941.6 622.54 16942.5 622.714 16943.3 623.052C16944.2 623.39 16944.9 623.886 16945.5 624.51C16946.1 625.134 16946.6 625.876 16947 626.692C16947.3 627.507 16947.5 628.382 16947.5 629.265C16947.5 630.148 16947.3 631.023 16947 631.838C16946.6 632.654 16946.1 633.396 16945.5 634.02L16937.6 641.96H16941.4C16948.8 641.959 16956.1 639.921 16962.4 636.069C16968.7 632.217 16973.9 626.699 16977.3 620.12L16995.6 584.64C16999.6 576.737 17005.8 570.109 17013.4 565.483C17021 560.856 17029.7 558.409 17038.6 558.41H17113.1C17122 558.409 17130.8 560.856 17138.4 565.483C17146 570.109 17152.1 576.737 17156.2 584.64L17174.5 620.12C17177.9 626.701 17183 632.223 17189.4 636.082C17195.7 639.941 17202.9 641.988 17210.3 642H17214.2L17206.2 634.06C17205 632.799 17204.3 631.088 17204.3 629.305C17204.3 627.522 17205 625.811 17206.2 624.55C17207.5 623.289 17209.2 622.58 17211 622.58C17212.8 622.58 17214.5 623.289 17215.7 624.55L17221.4 630.25L17227.1 624.55C17228.4 623.305 17230.1 622.597 17231.8 622.579C17233.6 622.56 17235.3 623.232 17236.5 624.45C17237.8 625.772 17238.5 627.541 17238.5 629.375C17238.5 631.21 17237.7 632.964 17236.4 634.26L17228.2 642.45C17236.3 643.464 17244 646.232 17250.9 650.56L17268.2 661.45C17272.9 664.429 17278.6 665.581 17284.1 664.69C17289.6 663.799 17294.6 660.927 17298.2 656.61L17303.4 650.23C17305.3 647.814 17307.5 645.74 17310.1 644.1C17312.7 642.578 17315.6 641.805 17318.6 641.87C17319.1 641.886 17319.5 641.811 17319.9 641.648C17320.4 641.485 17320.8 641.239 17321.1 640.923C17321.4 640.608 17321.7 640.23 17321.8 639.812C17322 639.394 17322.1 638.944 17322.1 638.49V451C17260.9 401.79 17266.5 356.26 17266.5 356.26H17293.1C17295.4 393.06 17322.1 413.26 17322.1 413.26V203.81H17349.7V338.53C17395.3 294.37 17389.7 253.9 17389.7 253.9H17417.3C17417.8 330.25 17349.7 376.7 17349.7 376.7V634.78C17349.7 635.723 17349.9 636.658 17350.3 637.529C17350.6 638.401 17351.2 639.193 17351.8 639.86C17352.5 640.527 17353.3 641.056 17354.2 641.416C17355 641.777 17356 641.961 17356.9 641.96H17406.9C17438 641.961 17468.6 649.711 17495.9 664.51L17521.7 678.43C17534.6 685.408 17549 689.064 17563.7 689.07C17566.9 689.07 17570.1 689.18 17573.4 689.4L17565.8 681.8C17564.5 680.539 17563.8 678.828 17563.8 677.045C17563.8 675.262 17564.5 673.551 17565.8 672.29C17567 671.029 17568.7 670.32 17570.5 670.32C17572.3 670.32 17574 671.029 17575.3 672.29L17581 677.99L17586.7 672.29C17587.9 671.045 17589.6 670.338 17591.3 670.319C17593.1 670.3 17594.8 670.972 17596.1 672.19C17597.3 673.512 17598 675.281 17598 677.115C17598 678.95 17597.3 680.704 17596 682L17587 691C17613.5 695.322 17638.3 706.923 17658.6 724.51L17666.2 731.13C17682 744.734 17702 752.221 17722.8 752.22H17738.4L17794 751C17807.1 750.73 17811.9 739.85 17819.9 726.29L17824.7 714.35C17828.3 705.223 17834 697.036 17841.2 690.397C17848.5 683.758 17857.1 678.837 17866.6 676C17877.7 672.739 17889.3 671.056 17900.9 671H17913.9C17916.3 670.997 17918.7 670.021 17920.4 668.285C17922.2 666.549 17923.1 664.195 17923.1 661.74V645.74C17875.7 607.55 17879.9 572.22 17879.9 572.22H17900.6C17902.4 600.78 17923.1 616.48 17923.1 616.48V453.89H17944.5V558.45C17979.9 524.18 17975.6 492.76 17975.6 492.76H17997C17997.3 552.01 17944.5 588.07 17944.5 588.07V663C17944.5 665.122 17945.4 667.157 17946.9 668.657C17948.4 670.157 17950.4 671 17952.5 671H18036L18023.8 658.79C18021.4 656.403 18020.1 653.166 18020.1 649.79C18020.1 646.414 18021.4 643.177 18023.8 640.79C18026.2 638.403 18029.4 637.062 18032.8 637.062C18036.2 637.062 18039.4 638.403 18041.8 640.79L18052.6 651.56L18063.3 640.79C18065.7 638.403 18069 637.062 18072.3 637.062C18074 637.062 18075.7 637.391 18077.2 638.031C18078.7 638.671 18080.1 639.608 18081.3 640.79C18082.5 641.972 18083.4 643.375 18084.1 644.919C18084.7 646.463 18085.1 648.119 18085.1 649.79C18085.1 651.461 18084.7 653.117 18084.1 654.661C18083.4 656.205 18082.5 657.608 18081.3 658.79L18069 671C18091 671.07 18118.2 672.94 18141.2 669.34C18152.3 667.571 18162.4 661.909 18169.6 653.374C18176.9 644.839 18180.8 633.993 18180.8 622.79V441.16C18119.7 391.95 18125.2 346.42 18125.2 346.42H18151.8C18154.1 383.22 18180.8 403.42 18180.8 403.42V321.02C18121.8 272.47 18127.3 227.96 18127.3 227.96H18153.9C18155.8 258.49 18174.5 277.61 18180.8 283.24V194H18208.4V328.72C18254 284.56 18248.4 244.09 18248.4 244.09H18276C18276.5 320.44 18208.4 366.89 18208.4 366.89V553.41C18208.4 557.353 18209.5 561.224 18211.5 564.627C18213.5 568.029 18216.3 570.842 18219.8 572.775C18223.2 574.708 18227.1 575.693 18231 575.629C18235 575.565 18238.8 574.454 18242.2 572.41C18260.5 561.508 18281.5 555.794 18302.9 555.88H18476C18497.3 555.794 18518.3 561.508 18536.6 572.41C18540 574.454 18543.9 575.565 18547.8 575.629C18551.8 575.693 18555.6 574.708 18559.1 572.775C18562.5 570.842 18565.4 568.029 18567.4 564.627C18569.4 561.224 18570.4 557.353 18570.4 553.41V366.89C18570.4 366.89 18502.4 320.44 18502.8 244.09H18530.4C18530.4 244.09 18524.9 284.56 18570.4 328.72V194H18598V283.27C18604.3 277.64 18623 258.52 18624.9 227.99H18651.6C18651.6 227.99 18657 272.5 18598 321.05V403.45C18598 403.45 18624.7 383.22 18627 346.45H18653.7C18653.7 346.45 18659.2 391.98 18598 441.19V622.81C18598 634.013 18602 644.86 18609.2 653.394C18616.5 661.929 18626.5 667.591 18637.6 669.36C18660.6 672.96 18687.8 671.09 18709.8 671.02L18697.6 658.8C18696.4 657.618 18695.5 656.215 18694.9 654.671C18694.2 653.127 18693.9 651.471 18693.9 649.8C18693.9 648.129 18694.2 646.473 18694.9 644.929C18695.5 643.385 18696.4 641.982 18697.6 640.8C18698.8 639.618 18700.2 638.681 18701.7 638.041C18703.3 637.401 18704.9 637.072 18706.6 637.072C18708.3 637.072 18709.9 637.401 18711.5 638.041C18713 638.681 18714.4 639.618 18715.6 640.8L18726.4 651.57L18737.2 640.8C18739.5 638.413 18742.8 637.072 18746.2 637.072C18747.8 637.072 18749.5 637.401 18751 638.041C18752.6 638.681 18754 639.618 18755.2 640.8C18756.3 641.982 18757.3 643.385 18757.9 644.929C18758.6 646.473 18758.9 648.129 18758.9 649.8C18758.9 651.471 18758.6 653.127 18757.9 654.671C18757.3 656.215 18756.3 657.618 18755.2 658.8L18742.8 671H18826.2C18828.4 671 18830.4 670.157 18831.9 668.657C18833.4 667.157 18834.2 665.122 18834.2 663V588.1C18834.2 588.1 18781.4 552.04 18781.8 492.79H18803.2C18803.2 492.79 18798.9 524.21 18834.2 558.48V453.89H18855.7V616.45C18855.7 616.45 18876.3 600.75 18878.1 572.19H18898.8C18898.8 572.19 18903.1 607.52 18855.7 645.71V661.71C18855.6 662.936 18855.9 664.15 18856.4 665.282C18856.8 666.414 18857.5 667.442 18858.4 668.306C18859.3 669.17 18860.3 669.853 18861.4 670.316C18862.6 670.778 18863.8 671.011 18865 671H18878C18889.6 671.056 18901.2 672.739 18912.3 676C18921.7 678.839 18930.4 683.764 18937.7 690.411C18944.9 697.057 18950.6 705.253 18954.2 714.39L18959 726.33C18967 739.89 18971.8 750.77 18984.9 751.04L19040.5 752.18H19056C19076.8 752.181 19096.9 744.694 19112.6 731.09L19120.2 724.47C19140.5 706.902 19165.3 695.315 19191.8 691L19182.8 682C19181.5 680.704 19180.8 678.95 19180.8 677.115C19180.8 675.281 19181.5 673.512 19182.7 672.19C19184 670.972 19185.7 670.3 19187.5 670.319C19189.2 670.338 19190.9 671.045 19192.1 672.29L19197.8 677.99L19203.5 672.29C19204.2 671.666 19204.9 671.17 19205.7 670.832C19206.5 670.494 19207.4 670.32 19208.3 670.32C19209.2 670.32 19210 670.494 19210.9 670.832C19211.7 671.17 19212.4 671.666 19213 672.29C19213.7 672.914 19214.2 673.656 19214.5 674.472C19214.8 675.287 19215 676.162 19215 677.045C19215 677.928 19214.8 678.803 19214.5 679.618C19214.2 680.434 19213.7 681.176 19213 681.8L19205.4 689.4C19208.7 689.18 19211.9 689.07 19215.1 689.07C19229.8 689.064 19244.2 685.408 19257.1 678.43L19283 664.51C19310.3 649.736 19340.9 642 19372 642H19422C19422.9 642.001 19423.9 641.817 19424.7 641.456C19425.6 641.096 19426.4 640.567 19427.1 639.9C19427.7 639.233 19428.3 638.441 19428.6 637.569C19429 636.698 19429.2 635.763 19429.2 634.82V376.7C19429.2 376.7 19361.1 330.25 19361.6 253.9H19389.2C19389.2 253.9 19383.6 294.37 19429.2 338.53V203.81H19456.8V413.26C19456.8 413.26 19483.4 393.03 19485.8 356.26H19512.5C19512.5 356.26 19518 401.79 19456.8 451V638.45C19456.8 638.904 19456.9 639.354 19457.1 639.772C19457.2 640.19 19457.5 640.568 19457.8 640.883C19458.2 641.199 19458.5 641.445 19459 641.608C19459.4 641.771 19459.8 641.846 19460.3 641.83C19463.3 641.765 19466.2 642.538 19468.8 644.06C19471.4 645.7 19473.6 647.774 19475.5 650.19L19480.7 656.57C19484.3 660.887 19489.3 663.759 19494.8 664.65C19500.3 665.541 19506 664.389 19510.7 661.41L19528 650.52C19534.9 646.192 19542.6 643.424 19550.7 642.41L19542.5 634.22C19541.2 632.924 19540.4 631.17 19540.4 629.335C19540.4 627.501 19541.1 625.732 19542.4 624.41C19543.6 623.192 19545.3 622.52 19547.1 622.539C19548.9 622.558 19550.5 623.265 19551.8 624.51L19557.5 630.21L19563.2 624.51C19563.8 623.886 19564.5 623.39 19565.4 623.052C19566.2 622.714 19567.1 622.54 19567.9 622.54C19568.8 622.54 19569.7 622.714 19570.5 623.052C19571.3 623.39 19572.1 623.886 19572.7 624.51C19573.3 625.134 19573.8 625.876 19574.1 626.692C19574.5 627.507 19574.7 628.382 19574.7 629.265C19574.7 630.148 19574.5 631.023 19574.1 631.838C19573.8 632.654 19573.3 633.396 19572.7 634.02L19564.8 641.96H19568.6C19576 641.959 19583.2 639.921 19589.6 636.069C19595.9 632.217 19601 626.699 19604.4 620.12L19622.7 584.64C19626.8 576.737 19633 570.109 19640.6 565.483C19648.2 560.856 19656.9 558.409 19665.8 558.41H19740.3C19749.2 558.409 19757.9 560.856 19765.5 565.483C19773.1 570.109 19779.3 576.737 19783.4 584.64L19801.7 620.12C19805.1 626.696 19810.2 632.215 19816.5 636.074C19822.8 639.933 19830.1 641.983 19837.5 642H19841.3L19833.4 634.06C19832.1 632.799 19831.4 631.088 19831.4 629.305C19831.4 627.522 19832.1 625.811 19833.4 624.55C19834.6 623.289 19836.3 622.58 19838.1 622.58C19839.9 622.58 19841.6 623.289 19842.9 624.55L19848.6 630.25L19854.3 624.55C19855.5 623.305 19857.2 622.597 19858.9 622.579C19860.7 622.56 19862.4 623.232 19863.7 624.45C19864.9 625.772 19865.6 627.541 19865.6 629.375C19865.6 631.21 19864.9 632.964 19863.6 634.26L19855.4 642.45C19863.4 643.464 19871.2 646.232 19878 650.56L19895.3 661.45C19900.1 664.429 19905.7 665.581 19911.2 664.69C19916.8 663.799 19921.8 660.927 19925.3 656.61L19930.6 650.23C19932.4 647.814 19934.7 645.74 19937.2 644.1C19939.8 642.578 19942.8 641.805 19945.8 641.87C19946.2 641.886 19946.7 641.811 19947.1 641.648C19947.5 641.485 19947.9 641.239 19948.2 640.923C19948.5 640.608 19948.8 640.23 19949 639.812C19949.2 639.394 19949.3 638.944 19949.2 638.49V451C19888.1 401.79 19893.6 356.26 19893.6 356.26H19920.3C19922.6 393.06 19949.3 413.26 19949.3 413.26V203.81H19976.9V338.53C20022.4 294.37 20016.9 253.9 20016.9 253.9H20044.5C20044.9 330.25 19976.9 376.7 19976.9 376.7V634.78C19976.9 635.722 19977 636.657 19977.4 637.53C19977.8 638.403 19978.3 639.198 19978.9 639.868C19979.6 640.539 19980.4 641.072 19981.3 641.438C19982.1 641.804 19983.1 641.995 19984 642H20034C20065.1 642 20095.7 649.736 20123 664.51L20148.8 678.43C20161.7 685.408 20176.1 689.064 20190.8 689.07C20194 689.07 20197.2 689.18 20200.4 689.4L20192.8 681.8C20192.2 681.176 20191.7 680.434 20191.4 679.618C20191 678.803 20190.9 677.928 20190.9 677.045C20190.9 676.162 20191 675.287 20191.4 674.472C20191.7 673.656 20192.2 672.914 20192.8 672.29C20193.5 671.666 20194.2 671.17 20195 670.832C20195.8 670.494 20196.7 670.32 20197.6 670.32C20198.5 670.32 20199.4 670.494 20200.2 670.832C20201 671.17 20201.7 671.666 20202.3 672.29L20208 677.99L20213.8 672.29C20215 671.045 20216.7 670.338 20218.4 670.319C20220.2 670.3 20221.9 670.972 20223.2 672.19C20224.4 673.512 20225.1 675.281 20225.1 677.115C20225.1 678.95 20224.3 680.704 20223 682L20214 691C20240.6 695.322 20265.4 706.923 20285.7 724.51L20293.3 731.13C20309.1 744.739 20329.2 752.213 20350 752.18H20365.5L20421.1 751.04C20434.2 750.77 20439 739.89 20447 726.33L20451.8 714.39C20455.4 705.252 20461.1 697.055 20468.4 690.409C20475.6 683.763 20484.3 678.838 20493.7 676C20504.8 672.739 20516.4 671.056 20528 671H20541C20543.5 670.997 20545.8 670.021 20547.6 668.285C20549.3 666.549 20550.3 664.195 20550.3 661.74V645.74C20502.8 607.55 20507.1 572.22 20507.1 572.22H20527.8C20529.6 600.78 20550.3 616.48 20550.3 616.48V453.89H20571.7V558.45C20607 524.18 20602.7 492.76 20602.7 492.76H20624.2C20624.5 552.01 20571.7 588.07 20571.7 588.07V663C20571.7 665.122 20572.5 667.157 20574 668.657C20575.5 670.157 20577.6 671 20579.7 671H20663.1L20650.9 658.79C20648.5 656.403 20647.1 653.166 20647.1 649.79C20647.1 646.414 20648.5 643.177 20650.9 640.79C20653.3 638.403 20656.5 637.062 20659.9 637.062C20663.2 637.062 20666.5 638.403 20668.9 640.79L20679.6 651.56L20690.4 640.79C20692.8 638.403 20696 637.062 20699.4 637.062C20701.1 637.062 20702.7 637.391 20704.3 638.031C20705.8 638.671 20707.2 639.608 20708.4 640.79C20709.6 641.972 20710.5 643.375 20711.2 644.919C20711.8 646.463 20712.1 648.119 20712.1 649.79C20712.1 651.461 20711.8 653.117 20711.2 654.661C20710.5 656.205 20709.6 657.608 20708.4 658.79L20696.2 671C20718.2 671.07 20745.4 672.94 20768.4 669.34C20779.5 667.571 20789.5 661.909 20796.8 653.374C20804 644.839 20808 633.993 20808 622.79V441.16C20746.8 391.95 20752.3 346.42 20752.3 346.42H20779C20781.3 383.22 20808 403.42 20808 403.42V321.02C20749 272.5 20754.4 228 20754.4 228H20781.1C20783 258.53 20801.7 277.65 20808 283.28V194H20835.6V328.72C20881.1 284.56 20875.6 244.09 20875.6 244.09H20903.2C20903.6 320.44 20835.6 366.89 20835.6 366.89V553.41C20835.6 557.353 20836.6 561.224 20838.6 564.627C20840.6 568.029 20843.5 570.842 20846.9 572.775C20850.3 574.708 20854.2 575.693 20858.2 575.629C20862.1 575.565 20866 574.454 20869.3 572.41C20887.7 561.508 20908.6 555.794 20930 555.88H21016.5V1080.22H10508V555.89H10594.6C10615.9 555.804 10636.9 561.518 10655.2 572.42C10658.6 574.464 10662.4 575.575 10666.4 575.639C10670.3 575.703 10674.2 574.718 10677.6 572.785C10681.1 570.852 10683.9 568.04 10685.9 564.637C10687.9 561.234 10689 557.363 10689 553.42V366.89C10689 366.89 10620.9 320.44 10621.4 244.09H10649C10649 244.09 10643.5 284.56 10689 328.72V194H10716.6V283.27C10722.9 277.64 10741.6 258.52 10743.5 227.99H10770.2C10770.2 227.99 10775.6 272.5 10716.6 321.05V403.45C10716.6 403.45 10743.3 383.22 10745.6 346.45H10772.3C10772.3 346.45 10777.8 391.98 10716.6 441.19V622.81C10716.6 634.013 10720.6 644.86 10727.8 653.394C10735.1 661.929 10745.1 667.591 10756.2 669.36C10779.2 672.96 10806.4 671.09 10828.4 671.02L10816.2 658.8C10815 657.618 10814.1 656.215 10813.4 654.671C10812.8 653.127 10812.4 651.471 10812.4 649.8C10812.4 648.129 10812.8 646.473 10813.4 644.929C10814.1 643.385 10815 641.982 10816.2 640.8C10817.4 639.618 10818.8 638.681 10820.3 638.041C10821.8 637.401 10823.5 637.072 10825.2 637.072C10826.8 637.072 10828.5 637.401 10830 638.041C10831.6 638.681 10833 639.618 10834.2 640.8L10844.9 651.6L10855.7 640.83C10858.1 638.443 10861.3 637.102 10864.7 637.102C10868 637.102 10871.3 638.443 10873.7 640.83C10876.1 643.217 10877.4 646.454 10877.4 649.83C10877.4 653.206 10876.1 656.443 10873.7 658.83L10861.4 671H10944.8C10946.9 671 10949 670.157 10950.5 668.657C10952 667.157 10952.8 665.122 10952.8 663V588.1C10952.8 588.1 10900 552 10900.4 492.76H10921.8C10921.8 492.76 10917.5 524.18 10952.9 558.45V453.89H10974.3V616.45C10974.3 616.45 10995 600.75 10996.8 572.19H11017.5C11017.5 572.19 11021.7 607.52 10974.3 645.71V661.71C10974.3 664.165 10975.2 666.519 10977 668.255C10978.7 669.991 10981.1 670.967 10983.5 670.97H10996.5C11008.1 671.026 11019.7 672.709 11030.8 675.97C11040.3 678.809 11048.9 683.734 11056.2 690.381C11063.4 697.027 11069.1 705.223 11072.8 714.36L11077.6 726.3C11085.5 739.86 11090.3 750.74 11103.4 751.01L11159 752.18H11174.5C11195.3 752.181 11215.4 744.694 11231.1 731.09L11238.8 724.47C11259.1 706.895 11283.9 695.308 11310.4 691L11301.4 682C11300.1 680.704 11299.4 678.95 11299.4 677.115C11299.3 675.281 11300 673.512 11301.3 672.19C11302.6 670.972 11304.3 670.3 11306 670.319C11307.8 670.338 11309.5 671.045 11310.7 672.29L11316.4 677.99L11322.1 672.29C11323.4 671.029 11325.1 670.32 11326.9 670.32C11328.6 670.32 11330.4 671.029 11331.6 672.29C11332.9 673.551 11333.6 675.262 11333.6 677.045C11333.6 678.828 11332.9 680.539 11331.6 681.8L11324 689.4C11327.2 689.18 11330.5 689.07 11333.7 689.07C11348.4 689.064 11362.8 685.408 11375.7 678.43L11401.5 664.51C11428.8 649.712 11459.5 641.975 11490.6 642H11540.6C11541.5 642.001 11542.4 641.817 11543.3 641.456C11544.2 641.096 11545 640.567 11545.6 639.9C11546.3 639.233 11546.8 638.441 11547.2 637.569C11547.5 636.698 11547.7 635.763 11547.7 634.82V376.7C11547.7 376.7 11479.7 330.25 11480.1 253.9H11507.7C11507.7 253.9 11502.2 294.37 11547.7 338.53V203.81H11575.3V413.26C11575.3 413.26 11602 393.03 11604.3 356.26H11631C11631 356.26 11636.5 401.79 11575.3 451V638.45C11575.3 638.904 11575.4 639.354 11575.6 639.772C11575.8 640.19 11576.1 640.568 11576.4 640.883C11576.7 641.199 11577.1 641.445 11577.5 641.608C11577.9 641.771 11578.4 641.846 11578.8 641.83C11581.8 641.765 11584.8 642.538 11587.3 644.06C11589.9 645.7 11592.2 647.774 11594 650.19L11599.3 656.57C11602.8 660.887 11607.8 663.759 11613.4 664.65C11618.9 665.541 11624.5 664.389 11629.3 661.41L11646.6 650.52C11653.4 646.192 11661.2 643.424 11669.2 642.41L11661 634.22C11659.7 632.924 11659 631.17 11659 629.335C11659 627.501 11659.7 625.732 11660.9 624.41C11662.2 623.192 11663.9 622.52 11665.7 622.539C11667.4 622.558 11669.1 623.265 11670.3 624.51L11676 630.21L11681.7 624.51C11682.4 623.886 11683.1 623.39 11683.9 623.052C11684.7 622.714 11685.6 622.54 11686.5 622.54C11687.4 622.54 11688.2 622.714 11689.1 623.052C11689.9 623.39 11690.6 623.886 11691.2 624.51C11691.9 625.134 11692.4 625.876 11692.7 626.692C11693 627.507 11693.2 628.382 11693.2 629.265C11693.2 630.148 11693 631.023 11692.7 631.838C11692.4 632.654 11691.9 633.396 11691.2 634.02L11683.3 641.96H11687.1C11694.5 641.959 11701.8 639.921 11708.1 636.069C11714.4 632.217 11719.6 626.699 11723 620.12L11741.3 584.64C11745.4 576.737 11751.5 570.109 11759.1 565.483C11766.7 560.856 11775.5 558.409 11784.3 558.41H11858.9C11867.8 558.409 11876.5 560.856 11884.1 565.483C11891.7 570.109 11897.9 576.737 11901.9 584.64L11920.2 620.12C11923.6 626.701 11928.8 632.223 11935.1 636.082C11941.4 639.941 11948.6 641.988 11956.1 642H11959.9L11951.9 634.06C11950.7 632.799 11950 631.088 11950 629.305C11950 627.522 11950.7 625.811 11951.9 624.55C11953.2 623.289 11954.9 622.58 11956.7 622.58C11958.5 622.58 11960.2 623.289 11961.4 624.55L11967.2 630.25L11972.8 624.55C11974.1 623.305 11975.8 622.597 11977.5 622.579C11979.3 622.56 11981 623.232 11982.2 624.45C11983.5 625.772 11984.2 627.541 11984.2 629.375C11984.2 631.21 11983.4 632.964 11982.2 634.26L11974 642.45C11982 643.464 11989.8 646.232 11996.6 650.56L12013.9 661.45C12018.6 664.429 12024.3 665.581 12029.8 664.69C12035.3 663.799 12040.4 660.927 12043.9 656.61L12049.2 650.23C12051 647.814 12053.3 645.74 12055.8 644.1C12058.4 642.578 12061.3 641.805 12064.3 641.87C12064.8 641.886 12065.2 641.811 12065.7 641.648C12066.1 641.485 12066.5 641.239 12066.8 640.923C12067.1 640.608 12067.4 640.23 12067.6 639.812C12067.7 639.394 12067.8 638.944 12067.8 638.49V451C12006.7 401.79 12012.2 356.26 12012.2 356.26H12038.9C12041.2 393.06 12067.9 413.26 12067.9 413.26V203.81H12095.5V338.53C12141 294.37 12135.5 253.9 12135.5 253.9H12163C12163.5 330.25 12095.4 376.7 12095.4 376.7V634.78C12095.4 635.723 12095.6 636.658 12095.9 637.529C12096.3 638.401 12096.8 639.193 12097.5 639.86C12098.2 640.527 12099 641.056 12099.8 641.416C12100.7 641.777 12101.6 641.961 12102.6 641.96H12152.5C12183.6 641.961 12214.2 649.711 12241.6 664.51L12267.3 678.43C12280.2 685.408 12294.7 689.064 12309.3 689.07C12312.6 689.07 12315.8 689.18 12319 689.4L12311.4 681.8C12310.8 681.176 12310.3 680.434 12310 679.618C12309.6 678.803 12309.5 677.928 12309.5 677.045C12309.5 676.162 12309.6 675.287 12310 674.472C12310.3 673.656 12310.8 672.914 12311.4 672.29C12312.1 671.666 12312.8 671.17 12313.6 670.832C12314.4 670.494 12315.3 670.32 12316.2 670.32C12317.1 670.32 12317.9 670.494 12318.8 670.832C12319.6 671.17 12320.3 671.666 12320.9 672.29L12326.6 677.99L12332.3 672.29C12333.6 671.045 12335.3 670.338 12337 670.319C12338.8 670.3 12340.5 670.972 12341.7 672.19C12343 673.512 12343.7 675.281 12343.7 677.115C12343.7 678.95 12342.9 680.704 12341.6 682L12332.6 691C12359.2 695.322 12384 706.923 12404.3 724.51L12411.9 731.13C12427.6 744.734 12447.7 752.221 12468.5 752.22H12484L12539.7 751C12552.8 750.73 12557.6 739.85 12565.6 726.29L12570.4 714.35C12574 705.22 12579.7 697.032 12586.9 690.393C12594.2 683.754 12602.9 678.835 12612.3 676C12623.4 672.739 12635 671.056 12646.6 671H12659.6C12662 670.997 12664.4 670.021 12666.1 668.285C12667.9 666.549 12668.8 664.195 12668.9 661.74V645.74C12621.4 607.55 12625.7 572.22 12625.7 572.22H12646.4C12648.2 600.78 12668.9 616.48 12668.9 616.48V453.89H12690.3V558.45C12725.6 524.18 12721.3 492.76 12721.3 492.76H12742.7C12743.1 552.01 12690.3 588.07 12690.3 588.07V663C12690.3 665.122 12691.1 667.157 12692.6 668.657C12694.1 670.157 12696.1 671 12698.3 671H12781.7L12769.4 658.79C12767.1 656.403 12765.7 653.166 12765.7 649.79C12765.7 646.414 12767.1 643.177 12769.4 640.79C12771.8 638.403 12775.1 637.062 12778.4 637.062C12781.8 637.062 12785.1 638.403 12787.4 640.79L12798.2 651.56L12809 640.83C12811.4 638.443 12814.6 637.102 12818 637.102C12821.4 637.102 12824.6 638.443 12827 640.83C12829.4 643.217 12830.7 646.454 12830.7 649.83C12830.7 653.206 12829.4 656.443 12827 658.83L12814.8 671C12836.8 671.07 12864 672.94 12887 669.34C12898 667.571 12908.1 661.909 12915.4 653.374C12922.6 644.839 12926.6 633.993 12926.6 622.79V441.16C12865.4 391.95 12870.9 346.42 12870.9 346.42H12897.6C12899.9 383.22 12926.6 403.42 12926.6 403.42V321.02C12867.6 272.5 12873 228 12873 228H12899.7C12901.6 258.53 12920.3 277.65 12926.6 283.28V194H12954.2V328.72C12999.7 284.56 12994.2 244.09 12994.2 244.09H13021.8C13022.2 320.44 12954.2 366.89 12954.2 366.89V553.41C12954.2 557.353 12955.2 561.224 12957.2 564.627C12959.2 568.029 12962.1 570.842 12965.5 572.775C12968.9 574.708 12972.8 575.693 12976.8 575.629C12980.7 575.565 12984.6 574.454 12987.9 572.41C13006.3 561.508 13027.2 555.794 13048.6 555.88H13221.7C13243 555.794 13264 561.508 13282.4 572.41C13285.7 574.454 13289.6 575.565 13293.5 575.629C13297.5 575.693 13301.3 574.708 13304.8 572.775C13308.2 570.842 13311.1 568.029 13313.1 564.627C13315.1 561.224 13316.1 557.353 13316.1 553.41V366.89C13316.1 366.89 13248.1 320.44 13248.5 244.09H13276.1C13276.1 244.09 13270.6 284.56 13316.1 328.72V194H13343.7V283.27C13350 277.64 13368.7 258.52 13370.6 227.99H13397.3C13397.3 227.99 13402.7 272.5 13343.7 321.05V403.45C13343.7 403.45 13370.4 383.22 13372.7 346.45H13399.4C13399.4 346.45 13404.9 391.98 13343.7 441.19V622.81C13343.7 634.013 13347.7 644.86 13354.9 653.394C13362.2 661.929 13372.3 667.591 13383.3 669.36C13406.3 672.96 13433.5 671.09 13455.6 671.02L13443.3 658.8C13440.9 656.413 13439.6 653.176 13439.6 649.8C13439.6 646.424 13440.9 643.187 13443.3 640.8C13445.7 638.413 13449 637.072 13452.3 637.072C13455.7 637.072 13458.9 638.413 13461.3 640.8L13472 651.6L13482.8 640.83C13485.2 638.443 13488.4 637.102 13491.8 637.102C13495.1 637.102 13498.4 638.443 13500.8 640.83C13503.2 643.217 13504.5 646.454 13504.5 649.83C13504.5 653.206 13503.2 656.443 13500.8 658.83L13488.6 671H13572C13574.1 671 13576.2 670.157 13577.7 668.657C13579.2 667.157 13580 665.122 13580 663V588.1C13580 588.1 13527.2 552.04 13527.5 492.79H13548.9C13548.9 492.79 13544.7 524.21 13579.9 558.48V453.89H13601.4V616.45C13601.4 616.45 13622.1 600.75 13623.9 572.19H13644.6C13644.6 572.19 13648.8 607.52 13601.4 645.71V661.71C13601.4 664.165 13602.3 666.519 13604.1 668.255C13605.8 669.991 13608.2 670.967 13610.6 670.97H13623.6C13635.2 671.026 13646.8 672.709 13657.9 675.97C13667.4 678.809 13676 683.734 13683.3 690.381C13690.5 697.027 13696.2 705.223 13699.9 714.36L13704.7 726.3C13712.6 739.86 13717.4 750.74 13730.5 751.01L13786.1 752.15H13801.6C13822.4 752.151 13842.5 744.664 13858.2 731.06L13865.9 724.44C13886.2 706.868 13911 695.291 13937.6 691L13928.6 682C13927.3 680.704 13926.5 678.95 13926.5 677.115C13926.5 675.281 13927.2 673.512 13928.4 672.19C13929.7 670.972 13931.4 670.3 13933.2 670.319C13934.9 670.338 13936.6 671.045 13937.9 672.29L13943.6 677.99L13949.2 672.29C13949.9 671.666 13950.6 671.17 13951.4 670.832C13952.2 670.494 13953.1 670.32 13954 670.32C13954.9 670.32 13955.8 670.494 13956.6 670.832C13957.4 671.17 13958.1 671.666 13958.8 672.29C13959.4 672.914 13959.9 673.656 13960.2 674.472C13960.6 675.287 13960.7 676.162 13960.7 677.045C13960.7 677.928 13960.6 678.803 13960.2 679.618C13959.9 680.434 13959.4 681.176 13958.8 681.8L13951.2 689.4C13954.4 689.18 13957.6 689.07 13960.8 689.07C13975.5 689.064 13989.9 685.408 14002.8 678.43L14028.6 664.51C14056 649.712 14086.6 641.975 14117.8 642H14167.7C14168.6 642.001 14169.6 641.817 14170.4 641.456C14171.3 641.096 14172.1 640.567 14172.8 639.9C14173.4 639.233 14174 638.441 14174.3 637.569C14174.7 636.698 14174.9 635.763 14174.9 634.82V376.7C14174.9 376.7 14106.8 330.25 14107.3 253.9H14134.9C14134.9 253.9 14129.3 294.37 14174.9 338.53V203.81H14202.5L14202.5 413.26Z" fill="#015959"/>
</g>
<defs>
<clipPath id="clip0_23_24">
<rect width="21016.6" height="1080" fill="white"/>
</clipPath>
</defs>
</svg>
